<svg width="668" height="1223" viewBox="0 0 668 1223" fill="none" xmlns="http://www.w3.org/2000/svg">
    <rect opacity="0.3" x="273.285" y="364.319" width="165.069" height="165.069" rx="30" transform="rotate(-135 273.285 364.319)" fill="url(#paint0_linear)"/>
    <rect opacity="0.3" x="271.168" y="608.141" width="165.069" height="165.069" rx="30" transform="rotate(-135 271.168 608.141)" fill="url(#paint1_linear)"/>
    <rect opacity="0.1" x="398.723" y="979.547" width="165.069" height="165.069" rx="30" transform="rotate(-135 398.723 979.547)" fill="url(#paint2_linear)"/>
    <rect opacity="0.3" x="395.719" y="989.205" width="165.069" height="165.069" rx="30" transform="rotate(45 395.719 989.205)" fill="url(#paint3_linear)"/>
    <rect opacity="0.3" x="117.156" y="1013.61" width="165.069" height="386.661" rx="30" transform="rotate(-135 117.156 1013.61)" fill="url(#paint4_linear)"/>
    <rect opacity="0.3" x="550.844" y="96.2905" width="165.069" height="386.661" rx="30" transform="rotate(45 550.844 96.2905)" fill="url(#paint5_linear)"/>
    <rect opacity="0.2" x="272.668" y="1098.85" width="165.069" height="165.069" rx="30" transform="rotate(-135 272.668 1098.85)" fill="url(#paint6_linear)"/>
    <rect opacity="0.2" x="149.617" y="731.192" width="165.069" height="165.069" rx="30" transform="rotate(-135 149.617 731.192)" fill="url(#paint7_linear)"/>
    <rect opacity="0.3" x="148.867" y="483.589" width="165.069" height="165.069" rx="30" transform="rotate(-135 148.867 483.589)" fill="url(#paint8_linear)"/>
    <rect opacity="0.1" x="148.117" y="1222.65" width="165.069" height="165.069" rx="30" transform="rotate(-135 148.117 1222.65)" fill="url(#paint9_linear)"/>
    <rect opacity="0.2" x="263.34" y="117.012" width="165.069" height="165.069" rx="30" transform="rotate(135 263.34 117.012)" fill="url(#paint10_linear)"/>
    <defs>
        <linearGradient id="paint0_linear" x1="438.354" y1="529.389" x2="385.838" y2="344.329" gradientUnits="userSpaceOnUse">
            <stop stop-color="#828ECC"/>
            <stop offset="1" stop-color="#7986CB" stop-opacity="0"/>
        </linearGradient>
        <linearGradient id="paint1_linear" x1="436.237" y1="773.21" x2="383.721" y2="588.15" gradientUnits="userSpaceOnUse">
            <stop stop-color="#828ECC"/>
            <stop offset="1" stop-color="#7986CB" stop-opacity="0"/>
        </linearGradient>
        <linearGradient id="paint2_linear" x1="563.792" y1="1144.62" x2="511.276" y2="959.556" gradientUnits="userSpaceOnUse">
            <stop stop-color="#828ECC"/>
            <stop offset="1" stop-color="#7986CB" stop-opacity="0"/>
        </linearGradient>
        <linearGradient id="paint3_linear" x1="560.788" y1="1154.27" x2="508.272" y2="969.214" gradientUnits="userSpaceOnUse">
            <stop stop-color="#828ECC"/>
            <stop offset="1" stop-color="#7986CB" stop-opacity="0"/>
        </linearGradient>
        <linearGradient id="paint4_linear" x1="282.225" y1="1400.27" x2="66.2857" y2="1075.41" gradientUnits="userSpaceOnUse">
            <stop stop-color="#828ECC"/>
            <stop offset="1" stop-color="#7986CB" stop-opacity="0"/>
        </linearGradient>
        <linearGradient id="paint5_linear" x1="715.913" y1="482.951" x2="499.973" y2="158.096" gradientUnits="userSpaceOnUse">
            <stop stop-color="#828ECC"/>
            <stop offset="1" stop-color="#7986CB" stop-opacity="0"/>
        </linearGradient>
        <linearGradient id="paint6_linear" x1="437.737" y1="1263.92" x2="385.221" y2="1078.86" gradientUnits="userSpaceOnUse">
            <stop stop-color="#828ECC"/>
            <stop offset="1" stop-color="#7986CB" stop-opacity="0"/>
        </linearGradient>
        <linearGradient id="paint7_linear" x1="314.686" y1="896.262" x2="262.17" y2="711.202" gradientUnits="userSpaceOnUse">
            <stop stop-color="#828ECC"/>
            <stop offset="1" stop-color="#7986CB" stop-opacity="0"/>
        </linearGradient>
        <linearGradient id="paint8_linear" x1="313.936" y1="648.658" x2="261.42" y2="463.598" gradientUnits="userSpaceOnUse">
            <stop stop-color="#828ECC"/>
            <stop offset="1" stop-color="#7986CB" stop-opacity="0"/>
        </linearGradient>
        <linearGradient id="paint9_linear" x1="313.186" y1="1387.72" x2="260.67" y2="1202.66" gradientUnits="userSpaceOnUse">
            <stop stop-color="#828ECC"/>
            <stop offset="1" stop-color="#7986CB" stop-opacity="0"/>
        </linearGradient>
        <linearGradient id="paint10_linear" x1="428.409" y1="282.082" x2="375.893" y2="97.0215" gradientUnits="userSpaceOnUse">
            <stop stop-color="#828ECC"/>
            <stop offset="1" stop-color="#7986CB" stop-opacity="0"/>
        </linearGradient>
    </defs>
</svg>
