<svg width="477" height="383" viewBox="0 0 477 383" fill="none" xmlns="http://www.w3.org/2000/svg">
    <rect opacity="0.6" x="58.1113" y="258.98" width="80.8363" height="80.8363" rx="14.6913" transform="rotate(-135 58.1113 258.98)" fill="url(#paint0_linear)"/>
    <rect opacity="0.3" x="117.855" y="198.746" width="80.8363" height="193.533" rx="14.6913" transform="rotate(-135 117.855 198.746)" fill="url(#paint1_linear)"/>
    <rect opacity="0.7" x="118.346" y="319.705" width="80.8363" height="167.746" rx="14.6913" transform="rotate(-135 118.346 319.705)" fill="url(#paint2_linear)"/>
    <rect opacity="0.3" x="240.773" y="198.496" width="80.8363" height="199.262" rx="14.6913" transform="rotate(-135 240.773 198.496)" fill="url(#paint3_linear)"/>
    <rect x="177.111" y="382.388" width="80.8363" height="254.018" rx="14.6913" transform="rotate(-135 177.111 382.388)" fill="url(#paint4_linear)"/>
    <rect opacity="0.3" x="360.262" y="200.245" width="80.8363" height="164.278" rx="14.6913" transform="rotate(-135 360.262 200.245)" fill="url(#paint5_linear)"/>
    <defs>
        <linearGradient id="paint0_linear" x1="138.948" y1="339.817" x2="113.23" y2="249.191" gradientUnits="userSpaceOnUse">
            <stop stop-color="#828ECC"/>
            <stop offset="1" stop-color="#D2D1E8" stop-opacity="0.67"/>
        </linearGradient>
        <linearGradient id="paint1_linear" x1="198.692" y1="392.279" x2="89.7134" y2="231.876" gradientUnits="userSpaceOnUse">
            <stop stop-color="#D2D1E8" stop-opacity="0"/>
            <stop offset="1" stop-color="#828ECC"/>
        </linearGradient>
        <linearGradient id="paint2_linear" x1="199.182" y1="487.45" x2="110.331" y2="336.568" gradientUnits="userSpaceOnUse">
            <stop stop-color="#828ECC"/>
            <stop offset="1" stop-color="#D2D1E8" stop-opacity="0.67"/>
        </linearGradient>
        <linearGradient id="paint3_linear" x1="321.61" y1="397.758" x2="208.235" y2="235.682" gradientUnits="userSpaceOnUse">
            <stop stop-color="#D2D1E8" stop-opacity="0"/>
            <stop offset="1" stop-color="#828ECC"/>
        </linearGradient>
        <linearGradient id="paint4_linear" x1="257.948" y1="636.406" x2="105.095" y2="464.996" gradientUnits="userSpaceOnUse">
            <stop stop-color="#828ECC"/>
            <stop offset="1" stop-color="#D2D1E8" stop-opacity="0.68"/>
        </linearGradient>
        <linearGradient id="paint5_linear" x1="441.098" y1="364.523" x2="354.975" y2="215.186" gradientUnits="userSpaceOnUse">
            <stop stop-color="#D2D1E8" stop-opacity="0"/>
            <stop offset="1" stop-color="#828ECC"/>
        </linearGradient>
    </defs>
</svg>
