<svg width="32" height="21" viewBox="0 0 32 21" fill="none" xmlns="http://www.w3.org/2000/svg">
    <path fill-rule="evenodd" clip-rule="evenodd" d="M15.9703 0.195312C19.6402 0.195312 23.1495 1.97606 26.4199 4.90184C27.5357 5.9 28.545 6.96562 29.4336 8.0317C29.9698 8.675 30.3505 9.18105 30.5589 9.48254L31.0226 10.1532L30.5589 10.8239C30.3505 11.1253 29.9698 11.6314 29.4336 12.2747C28.545 13.3408 27.5357 14.4064 26.4199 15.4046C23.1495 18.3303 19.6402 20.1111 15.9703 20.1111C12.3003 20.1111 8.79105 18.3303 5.52063 15.4046C4.4049 14.4064 3.39552 13.3408 2.50694 12.2747C1.97075 11.6314 1.59006 11.1253 1.38163 10.8239L0.917969 10.1532L1.38163 9.48254C1.59006 9.18105 1.97075 8.675 2.50694 8.0317C3.39552 6.96562 4.4049 5.9 5.52063 4.90184C8.79105 1.97606 12.3003 0.195312 15.9703 0.195312ZM27.3029 9.5519C26.4894 8.57582 25.5644 7.5993 24.5496 6.69145C21.7328 4.1715 18.8031 2.68481 15.9706 2.68481C13.1382 2.68481 10.2085 4.1715 7.39169 6.69145C6.3769 7.5993 5.45192 8.57582 4.63837 9.5519C4.46266 9.7627 4.3003 9.96384 4.15186 10.1533C4.3003 10.3427 4.46266 10.5438 4.63837 10.7546C5.45192 11.7307 6.3769 12.7072 7.39169 13.6151C10.2085 16.135 13.1382 17.6217 15.9706 17.6217C18.8031 17.6217 21.7328 16.135 24.5496 13.6151C25.5644 12.7072 26.4894 11.7307 27.3029 10.7546C27.4786 10.5438 27.641 10.3427 27.7894 10.1533C27.641 9.96384 27.4786 9.7627 27.3029 9.5519ZM10.5901 10.1531C10.5901 12.9029 12.9997 15.132 15.9722 15.132C18.9446 15.132 21.3542 12.9029 21.3542 10.1531C21.3542 7.40341 18.9446 5.17432 15.9722 5.17432C12.9997 5.17432 10.5901 7.40341 10.5901 10.1531ZM18.6633 10.153C18.6633 11.5279 17.4585 12.6425 15.9723 12.6425C14.4861 12.6425 13.2812 11.5279 13.2812 10.153C13.2812 8.77813 14.4861 7.66357 15.9723 7.66357C17.4585 7.66357 18.6633 8.77813 18.6633 10.153Z" fill="black"/>
</svg>
