<svg width="52" height="52" viewBox="0 0 52 52" fill="none" xmlns="http://www.w3.org/2000/svg">
    <circle cx="26.1092" cy="26.172" r="23.738" transform="rotate(-90 26.1092 26.172)" stroke="#0A0A0A" stroke-width="3.05489"/>
    <path fill-rule="evenodd" clip-rule="evenodd" d="M31.0216 21.2907C31.0352 18.6152 28.9112 16.4506 26.2649 16.4434C23.6242 16.4362 21.4785 18.5704 21.4638 21.2181C21.4482 23.8372 23.5928 26.0051 26.2077 26.014C28.8495 26.0229 31.0083 23.9045 31.0216 21.2907ZM29.5531 29.2329C30.3353 28.9297 31.0397 28.4949 31.6248 27.8942C32.0065 27.502 32.0101 27.0094 31.7001 26.5043C31.4294 26.0624 30.958 25.8764 30.4532 26.0065C30.1933 26.0729 29.9689 26.2047 29.7593 26.3648C27.6423 27.7889 24.7453 27.7491 22.6365 26.3C22.5331 26.2289 22.4253 26.1616 22.3119 26.1085C21.7267 25.8325 21.1641 25.9609 20.8286 26.4412C20.4369 27.0022 20.4867 27.5473 20.9823 28.0229C21.0859 28.1229 21.2006 28.2116 21.3152 28.3002C21.3421 28.3209 21.369 28.3417 21.3957 28.3626C22.5273 29.2474 23.8491 29.6082 25.3148 29.7614C25.2778 29.8011 25.2456 29.8363 25.2162 29.8684C25.1632 29.9262 25.1195 29.9739 25.0735 30.0199C24.9201 30.1738 24.7667 30.3277 24.6133 30.4816C23.6921 31.4058 22.7707 32.3302 21.8468 33.2522C21.6239 33.474 21.4643 33.7225 21.4482 34.0466C21.4254 34.5272 21.7228 35.0051 22.1907 35.2313C22.631 35.4454 23.0824 35.3775 23.4619 35.0034C24.3066 34.1703 25.1466 33.3328 25.9731 32.4816C26.1802 32.2687 26.2925 32.222 26.5273 32.4672C27.0708 33.0362 27.6293 33.5914 28.1878 34.1466C28.456 34.4132 28.7242 34.6799 28.9907 34.9481C29.2051 35.1641 29.4466 35.3178 29.7563 35.3392C30.2452 35.3728 30.7436 35.0604 30.9657 34.585C31.1692 34.1506 31.0922 33.6869 30.7225 33.3128C30.0524 32.6349 29.3789 31.9603 28.7053 31.2857C28.2884 30.8681 27.8714 30.4505 27.4552 30.0321C27.3997 29.9766 27.3543 29.927 27.286 29.8524C27.2612 29.8254 27.2335 29.795 27.2011 29.76C28.0034 29.6638 28.8137 29.5195 29.5531 29.2329ZM26.2637 23.6337C27.5185 23.6291 28.5179 22.6214 28.5133 21.3644C28.5088 20.1068 27.5072 19.1061 26.2519 19.105C24.9861 19.1037 23.9751 20.1229 23.9848 21.3918C23.9942 22.6443 25.0049 23.6382 26.2637 23.6337Z" fill="#0A0A0A"/>
</svg>
