<svg width="52" height="51" viewBox="0 0 52 51" fill="none" xmlns="http://www.w3.org/2000/svg">
    <circle cx="26.1092" cy="25.674" r="23.738" transform="rotate(-90 26.1092 25.674)" stroke="#0A0A0A" stroke-width="3.05489"/>
    <path fill-rule="evenodd" clip-rule="evenodd" d="M33.6249 28.1943C33.4539 28.0324 33.283 27.8705 33.1146 27.706C32.5431 27.1484 32.5066 26.8251 32.967 26.183C33.2338 25.8087 33.5117 25.4423 33.7896 25.0758C34.0332 24.7544 34.277 24.433 34.5133 24.1062C34.53 24.0832 34.5467 24.0601 34.5634 24.037C35.0192 23.4068 35.4769 22.7738 35.7167 22.0192C35.8746 21.5214 35.7347 21.3018 35.2244 21.2145C35.136 21.1992 35.0454 21.1984 34.9561 21.1984L31.9279 21.1948C31.5549 21.1892 31.3492 21.3518 31.2168 21.6823C31.0389 22.1293 30.8558 22.5754 30.6434 23.0066C30.1622 23.9842 29.6249 24.9288 28.8707 25.7291C28.8601 25.7404 28.8493 25.7519 28.8385 25.7635C28.6806 25.9324 28.5032 26.1221 28.2431 26.0362C27.8962 25.9097 27.7933 25.3371 27.7992 25.1439L27.7964 21.6492C27.7291 21.15 27.6179 20.9276 27.1223 20.8303L23.9776 20.8309C23.5576 20.8309 23.3474 20.9932 23.1231 21.2556C22.9938 21.4074 22.9549 21.5058 23.2207 21.5561C23.7424 21.6551 24.0368 21.9931 24.1146 22.5165C24.2397 23.3529 24.2311 24.1924 24.1588 25.0322C24.1377 25.2773 24.0957 25.522 23.9984 25.7507C23.8464 26.1107 23.6006 26.1838 23.2782 25.9626C22.986 25.7621 22.7809 25.4792 22.5799 25.1953C21.8258 24.1296 21.224 22.9805 20.7331 21.7727C20.591 21.4238 20.3464 21.2123 19.9767 21.2064C19.0683 21.192 18.1599 21.1897 17.2515 21.2073C16.7047 21.2175 16.5418 21.4827 16.7644 21.9784C17.7538 24.1791 18.8548 26.3184 20.2925 28.2675C21.0308 29.2674 21.878 30.1505 22.9727 30.7762C24.2136 31.4856 25.5487 31.6991 26.9558 31.6332C27.6143 31.6024 27.8122 31.4308 27.8425 30.7746C27.8636 30.3256 27.9142 29.8786 28.1358 29.4753C28.3532 29.0789 28.6828 29.0033 29.0623 29.2501C29.2524 29.3733 29.412 29.5298 29.5635 29.696C29.6862 29.83 29.8074 29.9655 29.9286 30.101C30.1737 30.375 30.4189 30.649 30.6765 30.911C31.1587 31.4025 31.7308 31.6924 32.4497 31.6329L35.233 31.6335C35.6811 31.6037 35.914 31.0547 35.6561 30.5541C35.4754 30.203 35.238 29.8909 34.9862 29.589C34.5689 29.088 34.0969 28.6412 33.6249 28.1943Z" fill="#0A0A0A"/>
</svg>
