<svg width="36" height="32" viewBox="14 0 30 30" fill="none" xmlns="http://www.w3.org/2000/svg">
    <path d="M12.5054 26.322C12.3483 26.7141 12.2838 27.1372 12.3171 27.5582C12.3504 27.9792 12.4806 28.3869 12.6975 28.7496C13.015 29.1628 13.4289 29.4923 13.9032 29.7095C14.3775 29.9266 14.8977 30.0247 15.4187 29.9954H33.827C34.3455 30.0158 34.8612 29.9102 35.3296 29.6876C35.7981 29.465 36.2053 29.1321 36.5162 28.7177C36.7698 28.348 36.9312 27.9232 36.9869 27.4787C37.0425 27.0342 36.9909 26.5828 36.8364 26.1623C35.6499 23.0953 33.3376 20.5941 30.3695 19.1668C31.1846 18.2533 31.7658 17.1563 32.0632 15.9697C32.3607 14.7831 32.3655 13.5422 32.0773 12.3533C31.7892 11.1645 31.2166 10.063 30.4086 9.14311C29.6005 8.22325 28.5812 7.51244 27.4377 7.07151C26.2942 6.63058 25.0607 6.47266 23.8427 6.61127C22.6247 6.74988 21.4585 7.18089 20.4439 7.86741C19.4293 8.55394 18.5965 9.47552 18.0169 10.5533C17.4372 11.6311 17.1279 12.8329 17.1155 14.056C17.1263 15.9449 17.8327 17.7639 19.1004 19.1668C16.0431 20.5918 13.6731 23.1631 12.5054 26.322ZM22.75 21.1792C23.0887 21.1062 23.3954 20.9276 23.6256 20.6692C23.8558 20.4108 23.9977 20.086 24.0306 19.7418C24.0627 19.3999 23.9835 19.0568 23.8047 18.7633C23.6259 18.4699 23.3571 18.2417 23.0382 18.1127C22.0182 17.7836 21.1543 17.0932 20.6097 16.1719C20.0651 15.2506 19.8776 14.1622 20.0825 13.1123C20.2874 12.0624 20.8707 11.1238 21.7219 10.4737C22.5732 9.82365 23.6337 9.50717 24.7029 9.58406C25.7197 9.58687 26.7039 9.94208 27.4872 10.5889C28.2705 11.2358 28.8043 12.134 28.9971 13.1301C29.19 14.1262 29.03 15.1582 28.5445 16.0496C28.059 16.941 27.2782 17.6364 26.3356 18.0169C26.0322 18.18 25.7882 18.4346 25.6387 18.7445C25.4892 19.0543 25.4418 19.4034 25.5033 19.7418C25.5454 20.0827 25.6904 20.4028 25.9191 20.6596C26.1479 20.9163 26.4494 21.0975 26.7838 21.1792C28.3236 21.4741 29.7677 22.1407 30.9898 23.1206C32.2119 24.1006 33.175 25.3642 33.795 26.8011H15.899C16.5193 25.3938 17.4626 24.1517 18.6527 23.1751C19.8428 22.1986 21.2463 21.5149 22.75 21.1792Z" fill="#171719"/>
    <path d="M44.7163 18.9108C44.9045 18.5451 45.0026 18.14 45.0026 17.7289C45.0026 17.3179 44.9045 16.9127 44.7163 16.5471C43.7565 14.0167 41.8997 11.9254 39.4979 10.6696C40.2598 9.71185 40.7392 8.56118 40.8823 7.34672C41.0253 6.13226 40.8263 4.90206 40.3077 3.79414C39.7891 2.68621 38.9713 1.7444 37.9461 1.07436C36.9209 0.404318 35.7288 0.0325613 34.5037 0.00079685C33.3425 -0.0171461 32.1968 0.268211 31.1803 0.828545C30.1639 1.38888 29.3119 2.20471 28.7091 3.19506C28.6008 3.37459 28.5297 3.574 28.5001 3.78145C28.4704 3.9889 28.4829 4.20018 28.5366 4.40275C28.5903 4.60533 28.6843 4.79507 28.8129 4.96073C28.9415 5.12639 29.1022 5.2646 29.2853 5.36715C29.4658 5.47727 29.6664 5.5506 29.8755 5.58291C30.0845 5.61521 30.2979 5.60584 30.5033 5.55534C30.7088 5.50485 30.9021 5.41423 31.0722 5.28872C31.2423 5.16321 31.3858 5.0053 31.4943 4.82413C31.8249 4.10162 32.4018 3.51962 33.1222 3.18176C33.8427 2.84389 34.6599 2.77208 35.4284 2.97912C36.1969 3.18615 36.8669 3.6586 37.319 4.31233C37.7711 4.96607 37.976 5.75867 37.8972 6.54903C37.909 7.23198 37.7135 7.90252 37.3365 8.4726C36.9594 9.04268 36.4183 9.48564 35.7843 9.74329C35.4653 9.87229 35.1965 10.1004 35.0177 10.3939C34.8389 10.6873 34.7597 11.0305 34.7918 11.3724C34.8399 11.7075 34.9876 12.0206 35.2159 12.2712C35.4442 12.5217 35.7425 12.6982 36.0724 12.7778C37.2306 13.015 38.3208 13.5083 39.2626 14.2214C40.2045 14.9345 40.9741 15.8493 41.5148 16.8984H35.9123C35.4878 16.8984 35.0806 17.0667 34.7804 17.3662C34.4802 17.6657 34.3116 18.072 34.3116 18.4956C34.3116 18.9191 34.4802 19.3254 34.7804 19.6249C35.0806 19.9244 35.4878 20.0927 35.9123 20.0927H42.0911C42.5944 20.1461 43.103 20.0648 43.5644 19.8571C44.0258 19.6493 44.4234 19.3227 44.7163 18.9108Z" fill="#171719"/>
</svg>
