<svg width="53" height="38" viewBox="0 0 53 38" fill="none" xmlns="http://www.w3.org/2000/svg">
<path d="M14.7285 33.3403C14.5434 33.837 14.4675 34.3728 14.5067 34.9061C14.5459 35.4395 14.6992 35.9559 14.9547 36.4153C15.3286 36.9387 15.8161 37.356 16.3747 37.6311C16.9333 37.9061 17.5461 38.0304 18.1597 37.9932H39.8406C40.4512 38.0191 41.0585 37.8853 41.6103 37.6033C42.162 37.3214 42.6417 36.8998 43.0078 36.3748C43.3065 35.9066 43.4966 35.3685 43.5621 34.8054C43.6277 34.2424 43.567 33.6707 43.3849 33.138C41.9875 29.2532 39.2642 26.0849 35.7683 24.2771C36.7284 23.1199 37.4129 21.7304 37.7632 20.2273C38.1135 18.7243 38.1192 17.1526 37.7798 15.6467C37.4404 14.1407 36.766 12.7455 35.8144 11.5804C34.8627 10.4152 33.6621 9.51484 32.3154 8.95633C30.9686 8.39781 29.5158 8.19778 28.0812 8.37336C26.6467 8.54893 25.2732 9.09488 24.0782 9.96448C22.8833 10.8341 21.9025 12.0014 21.2197 13.3666C20.537 14.7318 20.1728 16.2541 20.1581 17.8034C20.1708 20.196 21.0029 22.5 22.4959 24.2771C18.8951 26.082 16.1037 29.3391 14.7285 33.3403ZM26.7943 26.8261C27.1933 26.7336 27.5544 26.5074 27.8256 26.18C28.0967 25.8527 28.2638 25.4413 28.3026 25.0054C28.3404 24.5723 28.2471 24.1377 28.0365 23.766C27.826 23.3943 27.5094 23.1053 27.1337 22.9419C25.9323 22.525 24.9149 21.6505 24.2735 20.4835C23.6321 19.3165 23.4112 17.9379 23.6526 16.608C23.894 15.2782 24.5808 14.0892 25.5835 13.2658C26.5861 12.4424 27.8351 12.0415 29.0944 12.1389C30.2919 12.1425 31.4511 12.5924 32.3737 13.4117C33.2962 14.231 33.9249 15.3689 34.152 16.6306C34.3792 17.8923 34.1907 19.1995 33.6189 20.3286C33.0471 21.4577 32.1275 22.3386 31.0174 22.8205C30.66 23.027 30.3727 23.3496 30.1966 23.7421C30.0205 24.1346 29.9646 24.5768 30.037 25.0054C30.0866 25.4372 30.2574 25.8427 30.5268 26.1679C30.7962 26.4931 31.1514 26.7226 31.5453 26.8261C33.3588 27.1996 35.0595 28.0439 36.4989 29.2852C37.9384 30.5265 39.0727 32.1271 39.8029 33.9472H18.7253C19.4559 32.1646 20.5669 30.5913 21.9686 29.3543C23.3702 28.1173 25.0233 27.2512 26.7943 26.8261Z" fill="black"/>
<path d="M52.6605 23.9537C52.8822 23.4905 52.9978 22.9773 52.9978 22.4567C52.9978 21.936 52.8822 21.4228 52.6605 20.9596C51.5301 17.7544 49.3433 15.1056 46.5145 13.5149C47.4119 12.3017 47.9765 10.8442 48.1449 9.30585C48.3134 7.76753 48.0791 6.20928 47.4682 4.80591C46.8574 3.40254 45.8942 2.20957 44.6867 1.36085C43.4793 0.512136 42.0753 0.0412444 40.6324 0.00100934C39.2648 -0.0217184 37.9154 0.339734 36.7182 1.04949C35.521 1.75925 34.5176 2.79263 33.8076 4.04707C33.68 4.27448 33.5963 4.52706 33.5614 4.78984C33.5266 5.05261 33.5412 5.32023 33.6045 5.57682C33.6678 5.83341 33.7784 6.07375 33.9299 6.28359C34.0814 6.49343 34.2706 6.66849 34.4863 6.7984C34.6989 6.93788 34.9351 7.03077 35.1813 7.07168C35.4276 7.1126 35.6789 7.10073 35.9209 7.03677C36.1628 6.97281 36.3905 6.85802 36.5908 6.69904C36.7912 6.54007 36.9602 6.34005 37.088 6.11056C37.4774 5.19538 38.1568 4.45819 39.0054 4.03022C39.8539 3.60226 40.8164 3.51131 41.7215 3.77355C42.6267 4.0358 43.4157 4.63422 43.9482 5.46229C44.4806 6.29035 44.722 7.29432 44.6292 8.29544C44.6431 9.16051 44.4129 10.0099 43.9687 10.732C43.5246 11.4541 42.8873 12.0151 42.1406 12.3415C41.7649 12.5049 41.4483 12.7939 41.2378 13.1656C41.0272 13.5373 40.9339 13.9719 40.9717 14.405C41.0284 14.8296 41.2024 15.2261 41.4712 15.5435C41.7401 15.8608 42.0915 16.0844 42.48 16.1853C43.8441 16.4857 45.128 17.1105 46.2374 18.0138C47.3467 18.9171 48.2531 20.0758 48.89 21.4047H42.2914C41.7914 21.4047 41.3119 21.6178 40.9583 21.9972C40.6048 22.3766 40.4061 22.8912 40.4061 23.4277C40.4061 23.9643 40.6048 24.4788 40.9583 24.8582C41.3119 25.2376 41.7914 25.4507 42.2914 25.4507H49.5687C50.1615 25.5184 50.7604 25.4154 51.3038 25.1523C51.8473 24.8892 52.3156 24.4755 52.6605 23.9537Z" fill="black"/>
<path d="M3.64506 32.127H10.4698C10.9698 32.127 11.4494 31.9139 11.8029 31.5345C12.1565 31.1551 12.3551 30.6406 12.3551 30.104C12.3551 29.5675 12.1565 29.0529 11.8029 28.6735C11.4494 28.2941 10.9698 28.081 10.4698 28.081H3.909C4.63565 26.2659 5.76419 24.6685 7.19664 23.4275C8.62909 22.1865 10.3222 21.3395 12.1289 20.9599C12.6289 21.0082 13.1263 20.8414 13.5117 20.4961C13.8971 20.1509 14.1388 19.6555 14.1838 19.119C14.2288 18.5824 14.0734 18.0487 13.7516 17.6351C13.4299 17.2216 12.9682 16.9621 12.4682 16.9139C11.7162 16.6143 11.0395 16.131 10.4918 15.5021C9.94403 14.8732 9.5403 14.1161 9.31258 13.2908C9.08486 12.4654 9.03939 11.5945 9.17979 10.747C9.32018 9.89952 9.64258 9.09877 10.1214 8.40819C10.6003 7.71761 11.2224 7.15619 11.9386 6.76842C12.6548 6.38064 13.4452 6.17716 14.2474 6.1741C15.0496 6.17104 15.8414 6.36848 16.5601 6.75079C17.2788 7.1331 17.9046 7.68976 18.388 8.37666C18.7045 8.78743 19.1593 9.04759 19.6535 9.10063C20.1477 9.15366 20.6414 8.99527 21.0275 8.65989C21.2197 8.48841 21.3783 8.2776 21.494 8.03974C21.6096 7.80187 21.68 7.5417 21.7011 7.27436C21.7221 7.00702 21.6934 6.73786 21.6166 6.48255C21.5398 6.22723 21.4164 5.99085 21.2537 5.78718C20.0738 4.25133 18.4761 3.14953 16.684 2.63583C14.8919 2.12213 12.995 2.22221 11.2586 2.92208C9.5221 3.62195 8.03285 4.88662 6.99904 6.53926C5.96523 8.19191 5.43856 10.1499 5.49265 12.1395C5.49244 14.4884 6.2824 16.7584 7.71729 18.5323C4.18735 20.4068 1.48078 23.6887 0.176121 27.6764C0.0130866 28.1853 -0.0377142 28.7279 0.0277117 29.2615C0.0931376 29.795 0.273007 30.305 0.553179 30.7514C0.935062 31.2206 1.41277 31.5889 1.94907 31.8275C2.48537 32.0662 3.06578 32.1687 3.64506 32.127Z" fill="black"/>
</svg>
