<svg width="59" height="58" viewBox="0 0 59 58" fill="none" xmlns="http://www.w3.org/2000/svg">
<path d="M25.3601 14.5579C31.5566 15.2732 37.26 19.111 40.2567 24.5824C40.5177 25.056 40.3437 25.636 39.87 25.9067C39.725 25.984 39.5607 26.0227 39.406 26.0227C39.058 26.0227 38.7293 25.839 38.5553 25.52C35.8583 20.59 30.7156 17.1293 25.1378 16.4816C24.6061 16.4139 24.2291 15.9402 24.2871 15.4086C24.3548 14.8769 24.8285 14.4999 25.3601 14.5579Z" fill="white"/>
<path fill-rule="evenodd" clip-rule="evenodd" d="M54.1849 34.7811L57.897 45.9173C57.9743 46.0623 58.0227 46.2266 58.0227 46.4006C58.0227 46.9323 57.5877 47.3673 57.056 47.3673H57.0366C56.9496 47.3673 56.8723 47.3576 56.7853 47.3383L44.9532 44.2256C41.1541 51.9107 33.2177 57.2178 24.0729 57.2178C20.4382 57.2178 16.8131 56.3477 13.5747 54.7141L1.21092 57.9718C1.13358 57.9911 1.04658 58.0008 0.969249 58.0008C0.708246 58.0008 0.447243 57.8944 0.263573 57.7011C0.0219036 57.4401 -0.0650975 57.0728 0.050904 56.7344L3.82095 45.4243C1.82959 41.9346 0.78558 37.9712 0.78558 33.9304C0.78558 25.182 5.62864 17.5549 12.7724 13.5722C16.5618 5.31674 24.8269 0 33.9233 0C46.7705 0 57.2203 10.4498 57.2203 23.2873C57.2203 27.3184 56.1763 31.2817 54.1849 34.7811ZM16.7745 53.989C19.1042 54.8397 21.5789 55.2844 24.0729 55.2844C32.8117 55.2844 40.3324 50.016 43.6385 42.4856C43.7254 42.2827 43.8125 42.0794 43.8898 41.8765C43.9478 41.7412 44.0058 41.6059 44.0541 41.4705C44.1314 41.2676 44.2088 41.0645 44.2765 40.8615C44.3248 40.7071 44.373 40.5622 44.4213 40.4174C44.4691 40.2808 44.5075 40.1484 44.5462 40.0147C44.5623 39.9591 44.5785 39.9032 44.5955 39.8465L44.7405 39.3535C44.7888 39.1892 44.8275 39.0152 44.8662 38.8412C44.8875 38.7344 44.9118 38.6305 44.9358 38.528C44.9553 38.4449 44.9745 38.3627 44.9918 38.2805C45.0063 38.2033 45.0208 38.1236 45.0353 38.044C45.0498 37.9641 45.0643 37.8843 45.0788 37.8068C45.1175 37.6135 45.1562 37.4105 45.1852 37.2075C45.1948 37.1302 45.2045 37.0504 45.2142 36.9707C45.2238 36.8909 45.2335 36.8112 45.2432 36.7338C45.2721 36.5309 45.3012 36.3277 45.3205 36.1248L45.3253 36.0765C45.343 35.9007 45.36 35.7316 45.3688 35.5545C45.3737 35.4675 45.3809 35.3805 45.3882 35.2935C45.3954 35.2065 45.4027 35.1195 45.4075 35.0325C45.4268 34.6651 45.4365 34.2978 45.4365 33.9208C45.4365 22.1466 35.8567 12.5668 24.0729 12.5668C23.6669 12.5668 23.2512 12.5765 22.8355 12.6055C22.7389 12.6055 22.6325 12.6152 22.5262 12.6248C22.2169 12.6442 21.8979 12.6732 21.5885 12.7118C21.5354 12.7167 21.4822 12.7239 21.429 12.7312C21.3758 12.7384 21.3227 12.7457 21.2695 12.7505C20.9408 12.7988 20.6218 12.8472 20.3028 12.9052C20.2611 12.9156 20.2166 12.9232 20.1708 12.9311C20.1316 12.9377 20.0916 12.9446 20.0515 12.9535C19.6648 13.0308 19.2878 13.1082 18.9108 13.2048C18.8915 13.2048 18.8722 13.2048 18.8528 13.2145C18.4565 13.3112 18.0505 13.4272 17.6541 13.5528L17.3931 13.6398C17.1128 13.7268 16.8325 13.8235 16.5618 13.9299C16.4796 13.9637 16.395 13.9975 16.3104 14.0314C16.2259 14.0652 16.1413 14.099 16.0591 14.1329C15.8754 14.2102 15.6918 14.2875 15.5178 14.3649C15.3148 14.4519 15.1118 14.5389 14.9088 14.6355C14.8221 14.6716 14.7408 14.7132 14.6568 14.7561C14.6284 14.7706 14.5997 14.7852 14.5704 14.7999C7.55233 18.3089 2.71894 25.559 2.71894 33.9208C2.71894 37.7585 3.75329 41.5285 5.70598 44.8153C5.85098 45.0569 5.87998 45.3469 5.79298 45.6176L2.44827 55.6421L13.4394 52.7517H13.4587C13.4636 52.7517 13.466 52.7493 13.4684 52.7469C13.4708 52.7444 13.4732 52.742 13.4781 52.742L19.5585 51.3887C20.0708 51.2727 20.5928 51.6013 20.7088 52.1234C20.8248 52.6454 20.4962 53.1577 19.9742 53.2737L16.7745 53.989ZM45.7894 42.3311C45.7811 42.3657 45.7717 42.4048 45.7555 42.4372L55.548 45.0086L52.2033 34.9841C52.1162 34.7135 52.1453 34.4235 52.2903 34.1818C54.2429 30.8951 55.2773 27.125 55.2773 23.2873C55.2773 11.5132 45.6975 1.93336 33.9233 1.93336C26.4122 1.93336 19.5198 5.88708 15.6724 12.1995C15.6966 12.1898 15.7208 12.1826 15.7449 12.1753C15.7691 12.1681 15.7933 12.1608 15.8174 12.1512C16.3975 11.9288 16.9968 11.7355 17.5961 11.5615C17.6735 11.5325 17.7411 11.5132 17.8185 11.4938C18.4371 11.3198 19.0752 11.1748 19.7228 11.0491L19.8968 11.0201C20.5445 10.8945 21.2018 10.8075 21.8689 10.7398C21.8979 10.7398 21.9244 10.7374 21.951 10.735C21.9776 10.7326 22.0042 10.7301 22.0332 10.7301C22.7099 10.6721 23.3865 10.6335 24.0729 10.6335C36.9201 10.6335 47.3699 21.0833 47.3699 33.9208C47.3699 34.6071 47.3312 35.2838 47.2732 35.9508C47.2684 35.9895 47.2659 36.0281 47.2635 36.0668C47.2611 36.1055 47.2587 36.1441 47.2539 36.1828C47.1959 36.8208 47.1089 37.4492 46.9929 38.0678L46.9348 38.3868C46.8188 38.9958 46.6642 39.6049 46.4998 40.2042C46.4853 40.2526 46.4708 40.3033 46.4563 40.3541C46.4418 40.4049 46.4273 40.4556 46.4128 40.5039C46.2292 41.1225 46.0262 41.7219 45.7942 42.3116C45.7926 42.3178 45.791 42.3244 45.7894 42.3311Z" fill="white"/>
</svg>
