<svg width="87" height="56" viewBox="0 0 87 56" fill="none" xmlns="http://www.w3.org/2000/svg">
<path fill-rule="evenodd" clip-rule="evenodd" d="M17.7016 30.9914C15.6486 28.9383 15.6486 25.6097 17.7017 23.5567L39.5411 1.71726C41.5941 -0.335769 44.9227 -0.335767 46.9758 1.71727L53.4811 8.22262C55.5342 10.2757 55.5342 13.6043 53.4811 15.6573L31.6417 37.4967C29.5887 39.5498 26.26 39.5498 24.207 37.4967L17.7016 30.9914ZM25.4798 36.2239L18.9744 29.7186C17.6243 28.3685 17.6244 26.1796 18.9744 24.8295L40.8139 2.99006C42.164 1.63997 44.3529 1.63997 45.703 2.99006L52.2083 9.49542C53.5584 10.8455 53.5584 13.0344 52.2083 14.3845L30.3689 36.2239C29.0188 37.574 26.8299 37.574 25.4798 36.2239Z" fill="#828ECC"/>
<path fill-rule="evenodd" clip-rule="evenodd" d="M1.71727 15.6658C-0.33577 13.6128 -0.335768 10.2841 1.71727 8.23111L8.22263 1.72576C10.2757 -0.327278 13.6043 -0.327275 15.6573 1.72576L22.1627 8.23112C24.2157 10.2842 24.2157 13.6128 22.1627 15.6658L15.6573 22.1712C13.6043 24.2242 10.2757 24.2242 8.22262 22.1712L1.71727 15.6658ZM9.49542 20.8984L2.99006 14.393C1.63997 13.0429 1.63997 10.854 2.99006 9.5039L9.49542 2.99855C10.8455 1.64846 13.0344 1.64846 14.3845 2.99855L20.8899 9.50391C22.24 10.854 22.24 13.0429 20.8899 14.393L14.3845 20.8984C13.0344 22.2485 10.8455 22.2485 9.49542 20.8984Z" fill="#828ECC"/>
<path fill-rule="evenodd" clip-rule="evenodd" d="M33.6899 39.5481C31.6369 41.6012 31.6369 44.9298 33.6899 46.9828L40.1953 53.4882C42.2483 55.5412 45.577 55.5412 47.63 53.4882L84.8035 16.3147C86.8565 14.2617 86.8565 10.9331 84.8035 8.88002L78.2981 2.37467C76.2451 0.321632 72.9165 0.321628 70.8634 2.37466L33.6899 39.5481ZM34.9627 45.71L41.4681 52.2154C42.8182 53.5655 45.0071 53.5655 46.3572 52.2154L83.5307 15.0419C84.8808 13.6918 84.8808 11.5029 83.5307 10.1528L77.0253 3.64746C75.6752 2.29737 73.4863 2.29736 72.1362 3.64745L34.9627 40.8209C33.6126 42.171 33.6126 44.3599 34.9627 45.71Z" fill="#828ECC"/>
</svg>
