<svg width="20" height="11" viewBox="0 0 20 11" fill="none" xmlns="http://www.w3.org/2000/svg">
<path fill-rule="evenodd" clip-rule="evenodd" d="M16.957 7.54974C16.786 7.38785 16.615 7.22595 16.4466 7.06147C15.8751 6.50386 15.8387 6.18057 16.299 5.53845C16.5659 5.16421 16.8437 4.79778 17.1216 4.4313C17.3653 4.10991 17.609 3.78848 17.8454 3.46172C17.862 3.43863 17.8787 3.41555 17.8954 3.39246C18.3512 2.76226 18.809 2.12926 19.0487 1.37469C19.2066 0.876841 19.0668 0.657242 18.5564 0.569959C18.468 0.55467 18.3774 0.553836 18.2882 0.553836L15.2599 0.550222C14.8869 0.544663 14.6812 0.707278 14.5489 1.03779C14.371 1.48477 14.1878 1.93092 13.9754 2.36205C13.4942 3.33969 12.9569 4.28424 12.2028 5.08452C12.1921 5.09583 12.1813 5.10733 12.1705 5.11892C12.0126 5.28783 11.8352 5.47752 11.5751 5.39168C11.2282 5.26521 11.1254 4.69258 11.1312 4.49939L11.1284 1.00471C11.0611 0.505469 10.95 0.28309 10.4543 0.185799L7.30961 0.186354C6.88959 0.186354 6.67944 0.348692 6.45512 0.611098C6.32586 0.762871 6.28695 0.861274 6.55269 0.911587C7.07445 1.01055 7.36882 1.34856 7.44665 1.87199C7.57174 2.70841 7.56312 3.54789 7.49085 4.38764C7.46972 4.63282 7.42775 4.87743 7.33046 5.10621C7.17841 5.46618 6.93268 5.53929 6.61023 5.31802C6.31808 5.1176 6.11294 4.83463 5.91196 4.55082C5.15782 3.48507 4.55601 2.33592 4.06511 1.12813C3.92306 0.779273 3.67844 0.567735 3.30874 0.561897C2.40032 0.547442 1.49191 0.545218 0.583488 0.562731C0.0367145 0.573016 -0.126178 0.838202 0.0964786 1.33383C1.08579 3.53454 2.18684 5.67383 3.62452 7.62298C4.36281 8.62285 5.21008 9.50597 6.30474 10.1317C7.54561 10.8411 8.88072 11.0546 10.2878 10.9887C10.9463 10.9578 11.1443 10.7863 11.1746 10.13C11.1957 9.68109 11.2463 9.23411 11.4678 8.83077C11.6852 8.43438 12.0149 8.35877 12.3943 8.60561C12.5844 8.72876 12.744 8.88525 12.8955 9.05148C13.0182 9.18551 13.1394 9.32101 13.2607 9.45651C13.5058 9.73046 13.7509 10.0045 14.0085 10.2665C14.4908 10.758 15.0628 11.0479 15.7817 10.9884L18.565 10.989C19.0131 10.9592 19.2461 10.4102 18.9881 9.90959C18.8074 9.55851 18.57 9.24634 18.3182 8.94446C17.9009 8.44352 17.4289 7.99664 16.957 7.54974Z" fill="#171719"/>
</svg>
