<svg width="76" height="77" viewBox="0 0 76 77" fill="none" xmlns="http://www.w3.org/2000/svg">
<mask id="path-1-inside-1" fill="white">
<path d="M38.8319 0.884699V10.8968C38.8319 11.3854 38.4358 11.7815 37.9472 11.7815C37.4586 11.7815 37.0625 11.3854 37.0625 10.8968V0.884699C37.0625 0.396093 37.4586 0 37.9472 0C38.4358 0 38.8319 0.396093 38.8319 0.884699Z"/>
<path d="M25.7834 34.191C25.8339 34.1999 25.8843 34.2034 25.9338 34.2034C26.3576 34.2034 26.7309 33.8991 26.8044 33.4682C27.5033 29.3968 30.9757 25.9943 35.0604 25.3768C35.5434 25.3033 35.8761 24.853 35.8035 24.37C35.7301 23.8869 35.2798 23.5516 34.7959 23.6277C29.9787 24.3549 25.8843 28.367 25.0606 33.1692C24.9775 33.6505 25.3013 34.1079 25.7834 34.191Z"/>
<path fill-rule="evenodd" clip-rule="evenodd" d="M25.8441 53.2695C20.2281 49.0627 17.2236 42.3753 17.8058 35.38C18.6011 25.7925 26.106 18.0673 35.6493 17.011C41.4918 16.3669 47.0964 18.1487 51.4358 22.0352C55.7169 25.8686 58.172 31.3599 58.172 37.1025C58.172 43.5104 55.2197 49.3998 50.0725 53.2606C49.4134 53.7561 49.0365 54.5479 49.0392 55.4335V63.8788C49.0392 66.885 47.1052 69.4418 44.4184 70.3875V73.1469C44.4184 75.1224 42.8109 76.7299 40.8354 76.7299H35.0698C33.0934 76.7299 31.4868 75.1224 31.4868 73.1469V70.3875C28.7999 69.4418 26.866 66.885 26.866 63.8788V55.4547C26.8686 54.5461 26.4962 53.7578 25.8441 53.2695ZM26.9049 51.854C28.009 52.6812 28.6398 53.987 28.6354 55.437V57.2197H47.2689V55.4556C47.2645 53.9896 47.8988 52.6794 49.01 51.846C53.7078 48.3222 56.4017 42.9486 56.4017 37.1025C56.4017 31.8624 54.1616 26.8515 50.2548 23.3534C46.8266 20.2835 42.5305 18.6512 37.9778 18.6512C37.2718 18.6512 36.5605 18.6901 35.8439 18.7697C27.1402 19.7332 20.2953 26.7807 19.5681 35.5277C19.0373 41.9117 21.7798 48.0153 26.9049 51.854ZM42.6472 73.1469C42.6472 73.1587 42.648 73.1705 42.6478 73.1822L42.6472 73.2039C42.6365 73.5515 42.5273 73.8748 42.3467 74.1469C42.0216 74.6368 41.465 74.9605 40.8345 74.9605H35.0689C34.0692 74.9605 33.2553 74.1475 33.2553 73.1469V70.7582L33.2869 70.7605C33.447 70.7722 33.6075 70.7839 33.7702 70.7839H42.1323C42.295 70.7839 42.4553 70.7722 42.6154 70.7605L42.6472 70.7582V73.1469ZM42.1332 69.0145C44.9652 69.0145 47.2689 66.7107 47.2689 63.8788V58.9882H28.6354V63.8788C28.6354 66.7107 30.9391 69.0145 33.771 69.0145H42.1332Z"/>
<path d="M28.2551 13.7102C28.7066 13.5231 28.9209 13.0054 28.7339 12.5538L24.9028 3.30449C24.7157 2.853 24.1981 2.63866 23.7467 2.82578C23.2953 3.01239 23.0808 3.52971 23.2677 3.98095L27.1002 13.2323C27.287 13.6833 27.8042 13.8973 28.2551 13.7102Z"/>
<path d="M12.9574 10.8697L20.0376 17.9499C20.3831 18.2954 20.3831 18.8556 20.0376 19.2011C19.6921 19.5466 19.1319 19.5466 18.7864 19.2011L11.7062 12.1208C11.3607 11.7754 11.3607 11.2152 11.7062 10.8697C12.0517 10.5242 12.6119 10.5242 12.9574 10.8697Z"/>
<path d="M55.8601 55.0247C55.5147 55.3702 55.5147 55.9303 55.8602 56.2757L62.9403 63.3551C63.2858 63.7006 63.8459 63.7005 64.1913 63.3551C64.5367 63.0096 64.5367 62.4496 64.1913 62.1042L57.1111 55.0247C56.7656 54.6793 56.2056 54.6793 55.8601 55.0247Z"/>
<path d="M14.0688 26.2634C14.5203 26.4504 14.7346 26.9681 14.5475 27.4195C14.3609 27.8705 13.844 28.0847 13.3931 27.8979L4.14144 24.0662C3.69008 23.8792 3.47568 23.3618 3.66254 22.9104C3.84946 22.4589 4.36708 22.2444 4.81857 22.4314L14.0688 26.2634Z"/>
<path d="M62.5057 46.3278C62.0545 46.1409 61.5372 46.3554 61.3506 46.8068C61.1634 47.2577 61.3775 47.7749 61.8285 47.9618L71.0795 51.794C71.531 51.9811 72.0486 51.7666 72.2355 51.3151C72.4224 50.8637 72.208 50.3463 71.7566 50.1593L62.5057 46.3278Z"/>
<path d="M11.7328 36.2275C12.2219 36.2275 12.6184 36.624 12.6184 37.1131C12.6184 37.6012 12.2227 37.9969 11.7346 37.9969H1.72064C1.23203 37.9969 0.835938 37.6008 0.835938 37.1122C0.835938 36.6236 1.23203 36.2275 1.72064 36.2275H11.7328Z"/>
<path d="M63.2812 37.1131C63.2812 37.6012 63.6769 37.9969 64.1651 37.9969H74.179C74.6676 37.9969 75.0637 37.6008 75.0637 37.1122C75.0637 36.6236 74.6676 36.2275 74.179 36.2275H64.1668C63.6777 36.2275 63.2812 36.624 63.2812 37.1131Z"/>
<path d="M13.3923 46.3278C13.8436 46.1409 14.3609 46.3554 14.5475 46.8068C14.7346 47.2577 14.5206 47.7749 14.0696 47.9618L4.81857 51.794C4.36708 51.9811 3.84946 51.7666 3.66254 51.3151C3.47568 50.8637 3.69008 50.3463 4.14144 50.1593L13.3923 46.3278Z"/>
<path d="M61.3506 27.4195C61.5372 27.8705 62.0541 28.0847 62.505 27.898L71.7566 24.0662C72.208 23.8792 72.4224 23.3618 72.2355 22.9104C72.0486 22.4589 71.531 22.2444 71.0795 22.4314L61.8292 26.2634C61.3778 26.4504 61.1634 26.9681 61.3506 27.4195Z"/>
<path d="M11.7084 63.3551C11.3625 63.0097 11.3624 62.4493 11.708 62.1037L18.7878 55.0247C19.1332 54.6793 19.6933 54.6793 20.0387 55.0247C20.3842 55.3702 20.3841 55.9303 20.0387 56.2757L12.9581 63.3556C12.6129 63.7007 12.0533 63.7005 11.7084 63.3551Z"/>
<path d="M57.1118 19.2012L64.192 12.121C64.5375 11.7755 64.5375 11.2153 64.192 10.8698C63.8465 10.5243 63.2863 10.5243 62.9408 10.8698L55.8606 17.95C55.5151 18.2955 55.5151 18.8557 55.8606 19.2012C56.2061 19.5467 56.7663 19.5467 57.1118 19.2012Z"/>
<path d="M48.8008 13.2315C48.6138 13.683 48.0961 13.8974 47.6447 13.7102C47.1936 13.5231 46.9795 13.0058 47.1664 12.5546L50.9971 3.30451C51.1841 2.85302 51.7017 2.63866 52.1531 2.82578C52.6045 3.01239 52.819 3.52971 52.6321 3.98097L48.8008 13.2315Z"/>
</mask>
<path d="M38.8319 0.884699V10.8968C38.8319 11.3854 38.4358 11.7815 37.9472 11.7815C37.4586 11.7815 37.0625 11.3854 37.0625 10.8968V0.884699C37.0625 0.396093 37.4586 0 37.9472 0C38.4358 0 38.8319 0.396093 38.8319 0.884699Z" fill="#EE1C29"/>
<path d="M25.7834 34.191C25.8339 34.1999 25.8843 34.2034 25.9338 34.2034C26.3576 34.2034 26.7309 33.8991 26.8044 33.4682C27.5033 29.3968 30.9757 25.9943 35.0604 25.3768C35.5434 25.3033 35.8761 24.853 35.8035 24.37C35.7301 23.8869 35.2798 23.5516 34.7959 23.6277C29.9787 24.3549 25.8843 28.367 25.0606 33.1692C24.9775 33.6505 25.3013 34.1079 25.7834 34.191Z" fill="#EE1C29"/>
<path fill-rule="evenodd" clip-rule="evenodd" d="M25.8441 53.2695C20.2281 49.0627 17.2236 42.3753 17.8058 35.38C18.6011 25.7925 26.106 18.0673 35.6493 17.011C41.4918 16.3669 47.0964 18.1487 51.4358 22.0352C55.7169 25.8686 58.172 31.3599 58.172 37.1025C58.172 43.5104 55.2197 49.3998 50.0725 53.2606C49.4134 53.7561 49.0365 54.5479 49.0392 55.4335V63.8788C49.0392 66.885 47.1052 69.4418 44.4184 70.3875V73.1469C44.4184 75.1224 42.8109 76.7299 40.8354 76.7299H35.0698C33.0934 76.7299 31.4868 75.1224 31.4868 73.1469V70.3875C28.7999 69.4418 26.866 66.885 26.866 63.8788V55.4547C26.8686 54.5461 26.4962 53.7578 25.8441 53.2695ZM26.9049 51.854C28.009 52.6812 28.6398 53.987 28.6354 55.437V57.2197H47.2689V55.4556C47.2645 53.9896 47.8988 52.6794 49.01 51.846C53.7078 48.3222 56.4017 42.9486 56.4017 37.1025C56.4017 31.8624 54.1616 26.8515 50.2548 23.3534C46.8266 20.2835 42.5305 18.6512 37.9778 18.6512C37.2718 18.6512 36.5605 18.6901 35.8439 18.7697C27.1402 19.7332 20.2953 26.7807 19.5681 35.5277C19.0373 41.9117 21.7798 48.0153 26.9049 51.854ZM42.6472 73.1469C42.6472 73.1587 42.648 73.1705 42.6478 73.1822L42.6472 73.2039C42.6365 73.5515 42.5273 73.8748 42.3467 74.1469C42.0216 74.6368 41.465 74.9605 40.8345 74.9605H35.0689C34.0692 74.9605 33.2553 74.1475 33.2553 73.1469V70.7582L33.2869 70.7605C33.447 70.7722 33.6075 70.7839 33.7702 70.7839H42.1323C42.295 70.7839 42.4553 70.7722 42.6154 70.7605L42.6472 70.7582V73.1469ZM42.1332 69.0145C44.9652 69.0145 47.2689 66.7107 47.2689 63.8788V58.9882H28.6354V63.8788C28.6354 66.7107 30.9391 69.0145 33.771 69.0145H42.1332Z" fill="#EE1C29"/>
<path d="M28.2551 13.7102C28.7066 13.5231 28.9209 13.0054 28.7339 12.5538L24.9028 3.30449C24.7157 2.853 24.1981 2.63866 23.7467 2.82578C23.2953 3.01239 23.0808 3.52971 23.2677 3.98095L27.1002 13.2323C27.287 13.6833 27.8042 13.8973 28.2551 13.7102Z" fill="#EE1C29"/>
<path d="M12.9574 10.8697L20.0376 17.9499C20.3831 18.2954 20.3831 18.8556 20.0376 19.2011C19.6921 19.5466 19.1319 19.5466 18.7864 19.2011L11.7062 12.1208C11.3607 11.7754 11.3607 11.2152 11.7062 10.8697C12.0517 10.5242 12.6119 10.5242 12.9574 10.8697Z" fill="#EE1C29"/>
<path d="M55.8601 55.0247C55.5147 55.3702 55.5147 55.9303 55.8602 56.2757L62.9403 63.3551C63.2858 63.7006 63.8459 63.7005 64.1913 63.3551C64.5367 63.0096 64.5367 62.4496 64.1913 62.1042L57.1111 55.0247C56.7656 54.6793 56.2056 54.6793 55.8601 55.0247Z" fill="#EE1C29"/>
<path d="M14.0688 26.2634C14.5203 26.4504 14.7346 26.9681 14.5475 27.4195C14.3609 27.8705 13.844 28.0847 13.3931 27.8979L4.14144 24.0662C3.69008 23.8792 3.47568 23.3618 3.66254 22.9104C3.84946 22.4589 4.36708 22.2444 4.81857 22.4314L14.0688 26.2634Z" fill="#EE1C29"/>
<path d="M62.5057 46.3278C62.0545 46.1409 61.5372 46.3554 61.3506 46.8068C61.1634 47.2577 61.3775 47.7749 61.8285 47.9618L71.0795 51.794C71.531 51.9811 72.0486 51.7666 72.2355 51.3151C72.4224 50.8637 72.208 50.3463 71.7566 50.1593L62.5057 46.3278Z" fill="#EE1C29"/>
<path d="M11.7328 36.2275C12.2219 36.2275 12.6184 36.624 12.6184 37.1131C12.6184 37.6012 12.2227 37.9969 11.7346 37.9969H1.72064C1.23203 37.9969 0.835938 37.6008 0.835938 37.1122C0.835938 36.6236 1.23203 36.2275 1.72064 36.2275H11.7328Z" fill="#EE1C29"/>
<path d="M63.2812 37.1131C63.2812 37.6012 63.6769 37.9969 64.1651 37.9969H74.179C74.6676 37.9969 75.0637 37.6008 75.0637 37.1122C75.0637 36.6236 74.6676 36.2275 74.179 36.2275H64.1668C63.6777 36.2275 63.2812 36.624 63.2812 37.1131Z" fill="#EE1C29"/>
<path d="M13.3923 46.3278C13.8436 46.1409 14.3609 46.3554 14.5475 46.8068C14.7346 47.2577 14.5206 47.7749 14.0696 47.9618L4.81857 51.794C4.36708 51.9811 3.84946 51.7666 3.66254 51.3151C3.47568 50.8637 3.69008 50.3463 4.14144 50.1593L13.3923 46.3278Z" fill="#EE1C29"/>
<path d="M61.3506 27.4195C61.5372 27.8705 62.0541 28.0847 62.505 27.898L71.7566 24.0662C72.208 23.8792 72.4224 23.3618 72.2355 22.9104C72.0486 22.4589 71.531 22.2444 71.0795 22.4314L61.8292 26.2634C61.3778 26.4504 61.1634 26.9681 61.3506 27.4195Z" fill="#EE1C29"/>
<path d="M11.7084 63.3551C11.3625 63.0097 11.3624 62.4493 11.708 62.1037L18.7878 55.0247C19.1332 54.6793 19.6933 54.6793 20.0387 55.0247C20.3842 55.3702 20.3841 55.9303 20.0387 56.2757L12.9581 63.3556C12.6129 63.7007 12.0533 63.7005 11.7084 63.3551Z" fill="#EE1C29"/>
<path d="M57.1118 19.2012L64.192 12.121C64.5375 11.7755 64.5375 11.2153 64.192 10.8698C63.8465 10.5243 63.2863 10.5243 62.9408 10.8698L55.8606 17.95C55.5151 18.2955 55.5151 18.8557 55.8606 19.2012C56.2061 19.5467 56.7663 19.5467 57.1118 19.2012Z" fill="#EE1C29"/>
<path d="M48.8008 13.2315C48.6138 13.683 48.0961 13.8974 47.6447 13.7102C47.1936 13.5231 46.9795 13.0058 47.1664 12.5546L50.9971 3.30451C51.1841 2.85302 51.7017 2.63866 52.1531 2.82578C52.6045 3.01239 52.819 3.52971 52.6321 3.98097L48.8008 13.2315Z" fill="#EE1C29"/>
<path d="M38.8319 0.884699V10.8968C38.8319 11.3854 38.4358 11.7815 37.9472 11.7815C37.4586 11.7815 37.0625 11.3854 37.0625 10.8968V0.884699C37.0625 0.396093 37.4586 0 37.9472 0C38.4358 0 38.8319 0.396093 38.8319 0.884699Z" stroke="#828ECC" stroke-width="2" stroke-linejoin="round" mask="url(#path-1-inside-1)"/>
<path d="M25.7834 34.191C25.8339 34.1999 25.8843 34.2034 25.9338 34.2034C26.3576 34.2034 26.7309 33.8991 26.8044 33.4682C27.5033 29.3968 30.9757 25.9943 35.0604 25.3768C35.5434 25.3033 35.8761 24.853 35.8035 24.37C35.7301 23.8869 35.2798 23.5516 34.7959 23.6277C29.9787 24.3549 25.8843 28.367 25.0606 33.1692C24.9775 33.6505 25.3013 34.1079 25.7834 34.191Z" stroke="#828ECC" stroke-width="2" stroke-linejoin="round" mask="url(#path-1-inside-1)"/>
<path fill-rule="evenodd" clip-rule="evenodd" d="M25.8441 53.2695C20.2281 49.0627 17.2236 42.3753 17.8058 35.38C18.6011 25.7925 26.106 18.0673 35.6493 17.011C41.4918 16.3669 47.0964 18.1487 51.4358 22.0352C55.7169 25.8686 58.172 31.3599 58.172 37.1025C58.172 43.5104 55.2197 49.3998 50.0725 53.2606C49.4134 53.7561 49.0365 54.5479 49.0392 55.4335V63.8788C49.0392 66.885 47.1052 69.4418 44.4184 70.3875V73.1469C44.4184 75.1224 42.8109 76.7299 40.8354 76.7299H35.0698C33.0934 76.7299 31.4868 75.1224 31.4868 73.1469V70.3875C28.7999 69.4418 26.866 66.885 26.866 63.8788V55.4547C26.8686 54.5461 26.4962 53.7578 25.8441 53.2695ZM26.9049 51.854C28.009 52.6812 28.6398 53.987 28.6354 55.437V57.2197H47.2689V55.4556C47.2645 53.9896 47.8988 52.6794 49.01 51.846C53.7078 48.3222 56.4017 42.9486 56.4017 37.1025C56.4017 31.8624 54.1616 26.8515 50.2548 23.3534C46.8266 20.2835 42.5305 18.6512 37.9778 18.6512C37.2718 18.6512 36.5605 18.6901 35.8439 18.7697C27.1402 19.7332 20.2953 26.7807 19.5681 35.5277C19.0373 41.9117 21.7798 48.0153 26.9049 51.854ZM42.6472 73.1469C42.6472 73.1587 42.648 73.1705 42.6478 73.1822L42.6472 73.2039C42.6365 73.5515 42.5273 73.8748 42.3467 74.1469C42.0216 74.6368 41.465 74.9605 40.8345 74.9605H35.0689C34.0692 74.9605 33.2553 74.1475 33.2553 73.1469V70.7582L33.2869 70.7605C33.447 70.7722 33.6075 70.7839 33.7702 70.7839H42.1323C42.295 70.7839 42.4553 70.7722 42.6154 70.7605L42.6472 70.7582V73.1469ZM42.1332 69.0145C44.9652 69.0145 47.2689 66.7107 47.2689 63.8788V58.9882H28.6354V63.8788C28.6354 66.7107 30.9391 69.0145 33.771 69.0145H42.1332Z" stroke="#828ECC" stroke-width="2" stroke-linejoin="round" mask="url(#path-1-inside-1)"/>
<path d="M28.2551 13.7102C28.7066 13.5231 28.9209 13.0054 28.7339 12.5538L24.9028 3.30449C24.7157 2.853 24.1981 2.63866 23.7467 2.82578C23.2953 3.01239 23.0808 3.52971 23.2677 3.98095L27.1002 13.2323C27.287 13.6833 27.8042 13.8973 28.2551 13.7102Z" stroke="#828ECC" stroke-width="2" stroke-linejoin="round" mask="url(#path-1-inside-1)"/>
<path d="M12.9574 10.8697L20.0376 17.9499C20.3831 18.2954 20.3831 18.8556 20.0376 19.2011C19.6921 19.5466 19.1319 19.5466 18.7864 19.2011L11.7062 12.1208C11.3607 11.7754 11.3607 11.2152 11.7062 10.8697C12.0517 10.5242 12.6119 10.5242 12.9574 10.8697Z" stroke="#828ECC" stroke-width="2" stroke-linejoin="round" mask="url(#path-1-inside-1)"/>
<path d="M55.8601 55.0247C55.5147 55.3702 55.5147 55.9303 55.8602 56.2757L62.9403 63.3551C63.2858 63.7006 63.8459 63.7005 64.1913 63.3551C64.5367 63.0096 64.5367 62.4496 64.1913 62.1042L57.1111 55.0247C56.7656 54.6793 56.2056 54.6793 55.8601 55.0247Z" stroke="#828ECC" stroke-width="2" stroke-linejoin="round" mask="url(#path-1-inside-1)"/>
<path d="M14.0688 26.2634C14.5203 26.4504 14.7346 26.9681 14.5475 27.4195C14.3609 27.8705 13.844 28.0847 13.3931 27.8979L4.14144 24.0662C3.69008 23.8792 3.47568 23.3618 3.66254 22.9104C3.84946 22.4589 4.36708 22.2444 4.81857 22.4314L14.0688 26.2634Z" stroke="#828ECC" stroke-width="2" stroke-linejoin="round" mask="url(#path-1-inside-1)"/>
<path d="M62.5057 46.3278C62.0545 46.1409 61.5372 46.3554 61.3506 46.8068C61.1634 47.2577 61.3775 47.7749 61.8285 47.9618L71.0795 51.794C71.531 51.9811 72.0486 51.7666 72.2355 51.3151C72.4224 50.8637 72.208 50.3463 71.7566 50.1593L62.5057 46.3278Z" stroke="#828ECC" stroke-width="2" stroke-linejoin="round" mask="url(#path-1-inside-1)"/>
<path d="M11.7328 36.2275C12.2219 36.2275 12.6184 36.624 12.6184 37.1131C12.6184 37.6012 12.2227 37.9969 11.7346 37.9969H1.72064C1.23203 37.9969 0.835938 37.6008 0.835938 37.1122C0.835938 36.6236 1.23203 36.2275 1.72064 36.2275H11.7328Z" stroke="#828ECC" stroke-width="2" stroke-linejoin="round" mask="url(#path-1-inside-1)"/>
<path d="M63.2812 37.1131C63.2812 37.6012 63.6769 37.9969 64.1651 37.9969H74.179C74.6676 37.9969 75.0637 37.6008 75.0637 37.1122C75.0637 36.6236 74.6676 36.2275 74.179 36.2275H64.1668C63.6777 36.2275 63.2812 36.624 63.2812 37.1131Z" stroke="#828ECC" stroke-width="2" stroke-linejoin="round" mask="url(#path-1-inside-1)"/>
<path d="M13.3923 46.3278C13.8436 46.1409 14.3609 46.3554 14.5475 46.8068C14.7346 47.2577 14.5206 47.7749 14.0696 47.9618L4.81857 51.794C4.36708 51.9811 3.84946 51.7666 3.66254 51.3151C3.47568 50.8637 3.69008 50.3463 4.14144 50.1593L13.3923 46.3278Z" stroke="#828ECC" stroke-width="2" stroke-linejoin="round" mask="url(#path-1-inside-1)"/>
<path d="M61.3506 27.4195C61.5372 27.8705 62.0541 28.0847 62.505 27.898L71.7566 24.0662C72.208 23.8792 72.4224 23.3618 72.2355 22.9104C72.0486 22.4589 71.531 22.2444 71.0795 22.4314L61.8292 26.2634C61.3778 26.4504 61.1634 26.9681 61.3506 27.4195Z" stroke="#828ECC" stroke-width="2" stroke-linejoin="round" mask="url(#path-1-inside-1)"/>
<path d="M11.7084 63.3551C11.3625 63.0097 11.3624 62.4493 11.708 62.1037L18.7878 55.0247C19.1332 54.6793 19.6933 54.6793 20.0387 55.0247C20.3842 55.3702 20.3841 55.9303 20.0387 56.2757L12.9581 63.3556C12.6129 63.7007 12.0533 63.7005 11.7084 63.3551Z" stroke="#828ECC" stroke-width="2" stroke-linejoin="round" mask="url(#path-1-inside-1)"/>
<path d="M57.1118 19.2012L64.192 12.121C64.5375 11.7755 64.5375 11.2153 64.192 10.8698C63.8465 10.5243 63.2863 10.5243 62.9408 10.8698L55.8606 17.95C55.5151 18.2955 55.5151 18.8557 55.8606 19.2012C56.2061 19.5467 56.7663 19.5467 57.1118 19.2012Z" stroke="#828ECC" stroke-width="2" stroke-linejoin="round" mask="url(#path-1-inside-1)"/>
<path d="M48.8008 13.2315C48.6138 13.683 48.0961 13.8974 47.6447 13.7102C47.1936 13.5231 46.9795 13.0058 47.1664 12.5546L50.9971 3.30451C51.1841 2.85302 51.7017 2.63866 52.1531 2.82578C52.6045 3.01239 52.819 3.52971 52.6321 3.98097L48.8008 13.2315Z" stroke="#828ECC" stroke-width="2" stroke-linejoin="round" mask="url(#path-1-inside-1)"/>
</svg>
