<svg width="53" height="38" viewBox="0 0 53 38" fill="black" xmlns="http://www.w3.org/2000/svg">
    <path d="M14.7279 33.3402C14.5428 33.8369 14.4669 34.3728 14.5062 34.9061C14.5454 35.4394 14.6987 35.9558 14.9542 36.4152C15.3281 36.9386 15.8156 37.356 16.3742 37.631C16.9328 37.906 17.5455 38.0304 18.1592 37.9932H39.84C40.4506 38.019 41.058 37.8852 41.6097 37.6033C42.1615 37.3214 42.6411 36.8997 43.0073 36.3748C43.306 35.9065 43.496 35.3684 43.5616 34.8054C43.6272 34.2423 43.5664 33.6706 43.3844 33.1379C41.9869 29.2531 39.2636 26.0849 35.7678 24.277C36.7279 23.1199 37.4123 21.7303 37.7627 20.2273C38.113 18.7242 38.1187 17.1525 37.7793 15.6466C37.4399 14.1407 36.7655 12.7454 35.8138 11.5803C34.8622 10.4151 33.6616 9.51478 32.3148 8.95627C30.9681 8.39775 29.5152 8.19772 28.0807 8.3733C26.6462 8.54887 25.2726 9.09482 24.0777 9.96441C22.8827 10.834 21.9019 12.0014 21.2192 13.3665C20.5365 14.7317 20.1722 16.2541 20.1576 17.8033C20.1703 20.1959 21.0023 22.5 22.4953 24.277C18.8945 26.0819 16.1031 29.339 14.7279 33.3402ZM26.7938 26.826C27.1927 26.7336 27.5539 26.5073 27.825 26.18C28.0961 25.8527 28.2632 25.4413 28.302 25.0053C28.3398 24.5722 28.2465 24.1376 28.036 23.7659C27.8254 23.3942 27.5088 23.1052 27.1331 22.9418C25.9318 22.525 24.9143 21.6504 24.2729 20.4834C23.6316 19.3164 23.4107 17.9378 23.652 16.608C23.8934 15.2781 24.5803 14.0892 25.5829 13.2657C26.5856 12.4423 27.8345 12.0414 29.0938 12.1388C30.2914 12.1424 31.4506 12.5923 32.3731 13.4117C33.2957 14.231 33.9243 15.3688 34.1515 16.6305C34.3786 17.8922 34.1902 19.1994 33.6184 20.3286C33.0466 21.4577 32.127 22.3385 31.0168 22.8204C30.6594 23.027 30.3721 23.3496 30.196 23.742C30.0199 24.1345 29.9641 24.5767 30.0365 25.0053C30.0861 25.4372 30.2569 25.8426 30.5263 26.1678C30.7957 26.493 31.1509 26.7226 31.5447 26.826C33.3583 27.1996 35.059 28.0439 36.4984 29.2852C37.9378 30.5265 39.0721 32.127 39.8023 33.9471H18.7247C19.4554 32.1645 20.5663 30.5912 21.968 29.3542C23.3697 28.1172 25.0227 27.2512 26.7938 26.826Z"/>
    <path d="M52.6625 23.9537C52.8841 23.4905 52.9998 22.9773 52.9998 22.4567C52.9998 21.936 52.8841 21.4228 52.6625 20.9596C51.5321 17.7544 49.3453 15.1056 46.5164 13.5149C47.4138 12.3017 47.9784 10.8442 48.1469 9.30585C48.3153 7.76753 48.081 6.20928 47.4702 4.80591C46.8593 3.40254 45.8961 2.20957 44.6887 1.36085C43.4812 0.512136 42.0773 0.0412444 40.6343 0.00100934C39.2667 -0.0217184 37.9174 0.339734 36.7202 1.04949C35.523 1.75925 34.5196 2.79263 33.8096 4.04707C33.682 4.27448 33.5983 4.52706 33.5634 4.78984C33.5285 5.05261 33.5431 5.32023 33.6064 5.57682C33.6697 5.83341 33.7804 6.07375 33.9319 6.28359C34.0834 6.49343 34.2726 6.66849 34.4883 6.7984C34.7008 6.93788 34.9371 7.03077 35.1833 7.07168C35.4295 7.1126 35.6809 7.10073 35.9228 7.03677C36.1647 6.97281 36.3925 6.85802 36.5928 6.69904C36.7931 6.54007 36.9621 6.34005 37.09 6.11056C37.4794 5.19538 38.1588 4.45819 39.0073 4.03022C39.8558 3.60226 40.8183 3.51131 41.7235 3.77355C42.6286 4.0358 43.4177 4.63422 43.9501 5.46229C44.4826 6.29035 44.7239 7.29432 44.6311 8.29544C44.6451 9.16051 44.4148 10.0099 43.9707 10.732C43.5266 11.4541 42.8893 12.0151 42.1426 12.3415C41.7669 12.5049 41.4503 12.7939 41.2397 13.1656C41.0292 13.5373 40.9359 13.9719 40.9737 14.405C41.0303 14.8296 41.2043 15.2261 41.4732 15.5435C41.7421 15.8608 42.0934 16.0844 42.4819 16.1853C43.846 16.4857 45.13 17.1105 46.2393 18.0138C47.3486 18.9171 48.2551 20.0758 48.8919 21.4047H42.2934C41.7934 21.4047 41.3138 21.6178 40.9603 21.9972C40.6067 22.3766 40.4081 22.8912 40.4081 23.4277C40.4081 23.9643 40.6067 24.4788 40.9603 24.8582C41.3138 25.2376 41.7934 25.4507 42.2934 25.4507H49.5706C50.1634 25.5184 50.7624 25.4154 51.3058 25.1523C51.8492 24.8892 52.3175 24.4755 52.6625 23.9537Z"/>
    <path d="M3.64506 32.1272H10.4698C10.9698 32.1272 11.4494 31.9141 11.8029 31.5347C12.1565 31.1553 12.3551 30.6407 12.3551 30.1042C12.3551 29.5676 12.1565 29.0531 11.8029 28.6737C11.4494 28.2943 10.9698 28.0811 10.4698 28.0811H3.909C4.63565 26.266 5.76419 24.6686 7.19664 23.4277C8.62909 22.1867 10.3222 21.3397 12.1289 20.9601C12.6289 21.0084 13.1263 20.8415 13.5117 20.4963C13.8971 20.151 14.1388 19.6557 14.1838 19.1191C14.2288 18.5826 14.0734 18.0488 13.7516 17.6353C13.4299 17.2217 12.9682 16.9623 12.4682 16.914C11.7162 16.6145 11.0395 16.1311 10.4918 15.5023C9.94403 14.8734 9.5403 14.1163 9.31258 13.2909C9.08486 12.4656 9.03939 11.5946 9.17979 10.7472C9.32018 9.89967 9.64258 9.09892 10.1214 8.40834C10.6003 7.71777 11.2224 7.15635 11.9386 6.76857C12.6548 6.38079 13.4452 6.17731 14.2474 6.17425C15.0496 6.17119 15.8414 6.36864 16.5601 6.75094C17.2788 7.13325 17.9046 7.68991 18.388 8.37681C18.7045 8.78758 19.1593 9.04775 19.6535 9.10078C20.1477 9.15381 20.6414 8.99543 21.0275 8.66004C21.2197 8.48856 21.3783 8.27776 21.494 8.03989C21.6096 7.80202 21.68 7.54185 21.7011 7.27451C21.7221 7.00718 21.6934 6.73802 21.6166 6.4827C21.5398 6.22738 21.4164 5.99101 21.2537 5.78733C20.0738 4.25149 18.4761 3.14969 16.684 2.63599C14.8919 2.12229 12.995 2.22237 11.2586 2.92223C9.5221 3.6221 8.03285 4.88677 6.99904 6.53941C5.96523 8.19206 5.43856 10.1501 5.49265 12.1397C5.49244 14.4885 6.2824 16.7586 7.71729 18.5324C4.18735 20.407 1.48078 23.6888 0.176121 27.6765C0.0130866 28.1855 -0.0377142 28.728 0.0277117 29.2616C0.0931376 29.7952 0.273007 30.3052 0.553179 30.7515C0.935062 31.2208 1.41277 31.5891 1.94907 31.8277C2.48537 32.0663 3.06578 32.1688 3.64506 32.1272Z"/>
</svg>
