<svg width="36" height="41" viewBox="0 0 36 41" fill="black" xmlns="http://www.w3.org/2000/svg">
    <path d="M0.794594 12.7823C0.590698 13.0786 0.5085 13.4354 0.563576 13.7853C0.618651 14.1352 0.807174 14.4537 1.09342 14.6806C1.35573 14.8577 1.66795 14.9564 1.98989 14.9639C2.22144 14.9618 2.44943 14.9096 2.65655 14.8114C2.86366 14.7133 3.04445 14.5716 3.18519 14.3973C3.82081 13.6103 4.53099 12.8801 5.30685 12.2157C7.51596 10.4651 10.1031 9.19506 12.8859 8.49506C15.6688 7.79506 18.5797 7.68212 21.4135 8.16419C24.8614 8.71725 28.1079 10.081 30.8564 12.1307C31.1694 12.3636 31.5673 12.4691 31.9624 12.424C32.3574 12.3788 32.7174 12.1867 32.9631 11.8899C33.2088 11.5931 33.3201 11.2159 33.2724 10.8413C33.2248 10.4667 33.0222 10.1254 32.7091 9.89246C29.5465 7.53812 25.8027 5.98762 21.8319 5.38764C18.586 4.8561 15.2562 5.01501 12.0831 5.85289C8.90992 6.69076 5.97279 8.18666 3.48402 10.2324C2.50262 10.9979 1.60192 11.8519 0.794594 12.7823Z"/>
    <path d="M35.0406 26.0127C35.4377 25.2897 35.6792 24.4991 35.751 23.6868C35.8228 22.8745 35.7235 22.0568 35.459 21.2812C35.3057 20.8375 35.1262 20.4024 34.9211 19.9779C33.698 17.3492 31.7986 15.0535 29.397 13.3012C26.9955 11.5489 24.1685 10.3961 21.1751 9.94832C18.0897 9.43802 14.9167 9.71484 11.9814 10.7504C9.046 11.786 6.4539 13.543 4.4708 15.8414C2.79125 18.1222 1.72768 20.7589 1.3734 23.5202C1.01911 26.2815 1.38494 29.0831 2.43879 31.6791C2.54975 32.0398 2.80728 32.3439 3.15473 32.5246C3.50218 32.7052 3.91109 32.7476 4.29151 32.6424C4.66865 32.5252 4.9827 32.2731 5.16686 31.9398C5.35102 31.6065 5.39076 31.2182 5.27763 30.8575C4.35676 28.6825 4.01941 26.325 4.29582 23.996C4.57223 21.6671 5.45376 19.4395 6.8614 17.513C8.5132 15.6253 10.6659 14.1891 13.0978 13.3525C15.5296 12.5159 18.1528 12.309 20.697 12.7532C23.1976 13.1264 25.5601 14.0866 27.5694 15.5463C29.5787 17.0061 31.1712 18.9191 32.2018 21.1112C32.3512 21.4795 32.5006 21.8195 32.6201 22.1878C32.8956 23.0442 32.8099 23.9684 32.3811 24.7661C32.0517 25.4316 31.4624 25.9498 30.7375 26.211C29.6696 26.5179 28.5196 26.4387 27.5096 25.9887C26.4997 25.5387 25.7014 24.7498 25.269 23.7744C24.8299 22.4734 24.0522 21.2983 23.0077 20.3574C21.9631 19.4166 20.6854 18.7404 19.2925 18.3913C17.7173 18.105 16.0863 18.3363 14.6684 19.0471C13.2505 19.7579 12.1305 20.9057 11.4932 22.3012C10.965 24.1516 10.9632 26.1017 11.4881 27.9531C12.013 29.8044 13.0458 31.4908 14.4814 32.8407C17.3143 35.7391 21.0353 37.7211 25.1196 38.5072H25.3288C25.7251 38.5297 26.1145 38.4021 26.4116 38.1524C26.7086 37.9026 26.8888 37.5513 26.9126 37.1756C26.9363 36.7999 26.8017 36.4306 26.5383 36.149C26.2749 35.8674 25.9044 35.6965 25.5081 35.674C22.153 34.9703 19.1009 33.3209 16.7525 30.9425C15.6978 29.9641 14.9142 28.754 14.4711 27.4195C14.028 26.0851 13.9392 24.6676 14.2125 23.2928C14.5841 22.5573 15.1923 21.9526 15.9494 21.5657C16.7066 21.1787 17.5737 21.0295 18.4259 21.1395C19.7408 21.4229 21.1452 22.1028 22.4601 24.9077C23.1793 26.55 24.531 27.8711 26.2405 28.6025C27.9501 29.334 29.8892 29.421 31.6639 28.8459C33.1365 28.3557 34.3484 27.3389 35.0406 26.0127Z"/>
    <path d="M31.7212 32.5312C31.7212 32.1555 31.5638 31.7952 31.2836 31.5295C31.0034 31.2638 30.6234 31.1146 30.2271 31.1146C24.2506 31.1146 20.7245 28.9613 19.5889 24.7682C19.4899 24.3925 19.2374 24.0695 18.8872 23.8702C18.5369 23.671 18.1175 23.6118 17.7213 23.7057C17.325 23.7996 16.9843 24.039 16.7742 24.3711C16.564 24.7031 16.5016 25.1008 16.6007 25.4765C17.6466 29.3297 20.844 33.9761 30.1375 33.9761C30.3436 33.9879 30.5501 33.9591 30.7439 33.8914C30.9377 33.8237 31.1146 33.7186 31.2635 33.5829C31.4123 33.4471 31.5298 33.2835 31.6086 33.1025C31.6874 32.9215 31.7257 32.727 31.7212 32.5312Z"/>
    <path d="M19.5295 17.0053C21.3708 17.3109 23.1007 18.053 24.5584 19.1626C26.016 20.2722 27.1541 21.7132 27.8668 23.3517C28.0459 23.6853 28.357 23.9382 28.7322 24.055C29.1074 24.1718 29.516 24.143 29.8689 23.975C30.046 23.8938 30.204 23.7797 30.3335 23.6393C30.463 23.499 30.5614 23.3354 30.6227 23.1582C30.6841 22.9811 30.7072 22.794 30.6906 22.6082C30.674 22.4224 30.6182 22.2416 30.5263 22.0767C29.6002 20.0128 28.1347 18.2066 26.2682 16.8286C24.4017 15.4505 22.1957 14.546 19.8582 14.2004C17.4399 13.8342 14.9614 14.1619 12.7409 15.1413C10.5205 16.1207 8.6596 17.7072 7.39724 19.6968C4.58828 24.23 5.45488 32.1913 13.6726 39.756C13.9566 40.0076 14.3298 40.1491 14.7185 40.1527C15.0171 40.1544 15.3094 40.0712 15.5577 39.9139C15.806 39.7566 15.9988 39.5323 16.1114 39.2701C16.224 39.0079 16.2511 38.7196 16.1892 38.4426C16.1273 38.1657 15.9794 37.9126 15.7643 37.7161C8.68219 31.228 7.75583 24.7116 9.96714 21.1418C10.969 19.6499 12.4053 18.4653 14.1024 17.7312C15.7995 16.9971 17.6845 16.745 19.5295 17.0053Z"/>
    <path d="M6.47151 5.72923C6.66852 5.76902 6.87215 5.76902 7.06916 5.72923C12.6837 3.2568 19.0522 2.79388 24.9987 4.42595C25.1951 4.48553 25.4028 4.50424 25.6076 4.4808C25.8123 4.45737 26.0094 4.39234 26.1852 4.29015C26.3611 4.18796 26.5116 4.05102 26.6266 3.88865C26.7415 3.72629 26.8182 3.54233 26.8514 3.34932C26.9101 3.16891 26.9294 2.97903 26.9081 2.7913C26.8867 2.60358 26.8252 2.42195 26.7273 2.25753C26.6294 2.09311 26.4972 1.94934 26.3387 1.83504C26.1802 1.72073 25.9988 1.63828 25.8055 1.59273C19.1677 -0.219053 12.0649 0.283505 5.78421 3.00934C5.42407 3.16448 5.14167 3.44631 4.99668 3.79525C4.8517 4.1442 4.85549 4.53292 5.00727 4.87926C5.12955 5.14648 5.33575 5.37146 5.59777 5.52356C5.85979 5.67565 6.16489 5.74747 6.47151 5.72923Z"/>
</svg>
