<svg width="32" height="36" viewBox="0 0 32 36" xmlns="http://www.w3.org/2000/svg">
    <path fill-rule="evenodd" clip-rule="evenodd" d="M22.6847 9.48726C21.2677 6.98046 18.8492 5.59437 16.2311 5.59437C12.0957 5.59437 8.47885 9.01558 8.47885 14.874C8.47885 19.706 7.38457 22.7461 5.31357 24.9984C4.98789 25.3526 4.28653 26.0033 3.82748 26.4237V27.2942H28.6348V26.423C28.1722 25.9976 27.4729 25.3464 27.1466 24.9902C26.6125 24.407 26.1434 23.7717 25.7412 23.0671L28.047 20.7613C28.4114 21.5946 28.8757 22.2878 29.4339 22.8972C29.6926 23.1797 30.3965 23.8288 30.8628 24.2587L30.8628 24.2588C31.0778 24.457 31.2422 24.6086 31.2892 24.6563L31.7357 25.1088V30.3938H22.2381C21.8502 31.92 20.8941 33.2568 19.4682 34.1266C17.4806 35.339 14.9817 35.339 12.9941 34.1266C11.3784 33.141 10.4849 32.0398 10.1657 30.3938H0.726562V25.1088L1.17304 24.6563C1.22486 24.6041 1.39619 24.4465 1.61738 24.2431L1.61753 24.243C2.08521 23.813 2.77565 23.1781 3.03048 22.9009C4.55462 21.2433 5.37794 18.956 5.37794 14.874C5.37794 8.56505 8.84376 4.2083 13.34 2.90321C13.5027 2.48372 13.7593 2.09377 14.1078 1.76644C15.3013 0.645562 17.161 0.645562 18.3545 1.76644C18.7038 2.09449 18.9608 2.48544 19.1233 2.90598C21.4245 3.57772 23.4579 5.05189 24.8936 7.17629L22.6847 9.48726ZM13.4053 30.3936C13.6243 30.8009 13.9977 31.1084 14.6075 31.4804C15.6033 32.0878 16.8552 32.0878 17.851 31.4804C18.3121 31.1991 18.6724 30.827 18.922 30.3936H13.4053ZM27.5365 10.6826L20.8805 17.3386L17.3255 13.7835L15.1328 15.9762L20.8805 21.7239L29.7292 12.8753L27.5365 10.6826Z"/>
</svg>
