<svg width="49" height="49" viewBox="0 0 49 49" fill="none" xmlns="http://www.w3.org/2000/svg">
    <circle cx="24.6706" cy="24.2337" r="22.2447" transform="rotate(-90 24.6706 24.2337)" stroke="black" stroke-width="3.05489"/>
    <path d="M22.2712 24.031C22.2712 22.32 23.6579 20.9325 25.3689 20.9325C27.0799 20.9325 28.4674 22.32 28.4674 24.031C28.4674 25.7421 27.0799 27.1295 25.3689 27.1295C23.6579 27.1295 22.2712 25.7421 22.2712 24.031ZM20.5962 24.031C20.5962 26.667 22.7329 28.8037 25.3689 28.8037C28.0049 28.8037 30.1416 26.667 30.1416 24.031C30.1416 21.395 28.0049 19.2583 25.3689 19.2583C22.7329 19.2583 20.5962 21.395 20.5962 24.031ZM29.2152 19.0691C29.2151 19.2897 29.2804 19.5053 29.4029 19.6888C29.5254 19.8723 29.6995 20.0153 29.9033 20.0998C30.1071 20.1843 30.3313 20.2065 30.5477 20.1635C30.7641 20.1206 30.9629 20.0144 31.1189 19.8585C31.275 19.7026 31.3813 19.5039 31.4244 19.2875C31.4675 19.0712 31.4455 18.8469 31.3612 18.6431C31.2768 18.4393 31.134 18.265 30.9506 18.1424C30.7672 18.0197 30.5516 17.9542 30.331 17.9541H30.3306C30.0349 17.9543 29.7513 18.0718 29.5422 18.2808C29.3331 18.4899 29.2155 18.7734 29.2152 19.0691ZM21.6139 31.5967C20.7077 31.5554 20.2151 31.4045 19.8878 31.2769C19.4538 31.108 19.1442 30.9068 18.8187 30.5817C18.4931 30.2566 18.2916 29.9473 18.1234 29.5133C17.9958 29.1861 17.8449 28.6935 17.8037 27.7873C17.7586 26.8075 17.7496 26.5132 17.7496 24.0311C17.7496 21.549 17.7594 21.2555 17.8037 20.2749C17.845 19.3687 17.997 18.877 18.1234 18.5489C18.2924 18.1149 18.4936 17.8053 18.8187 17.4797C19.1438 17.1542 19.4531 16.9527 19.8878 16.7845C20.215 16.6569 20.7077 16.506 21.6139 16.4648C22.5936 16.4197 22.8879 16.4107 25.3689 16.4107C27.8499 16.4107 28.1445 16.4205 29.1251 16.4648C30.0313 16.506 30.523 16.6581 30.8511 16.7845C31.2851 16.9527 31.5947 17.1547 31.9202 17.4797C32.2458 17.8048 32.4465 18.1149 32.6155 18.5489C32.7431 18.876 32.894 19.3687 32.9352 20.2749C32.9803 21.2555 32.9893 21.549 32.9893 24.0311C32.9893 26.5132 32.9803 26.8067 32.9352 27.7873C32.894 28.6935 32.7423 29.186 32.6155 29.5133C32.4465 29.9473 32.2453 30.2569 31.9202 30.5817C31.5952 30.9065 31.2851 31.108 30.8511 31.2769C30.524 31.4045 30.0313 31.5555 29.1251 31.5967C28.1453 31.6417 27.851 31.6507 25.3689 31.6507C22.8868 31.6507 22.5933 31.6417 21.6139 31.5967ZM21.5369 14.7926C20.5474 14.8377 19.8713 14.9946 19.2808 15.2243C18.6693 15.4616 18.1516 15.7799 17.6343 16.2964C17.117 16.8129 16.7995 17.3314 16.5622 17.9429C16.3325 18.5338 16.1756 19.2095 16.1305 20.199C16.0847 21.19 16.0742 21.5069 16.0742 24.031C16.0742 26.5552 16.0847 26.872 16.1305 27.863C16.1756 28.8526 16.3325 29.5283 16.5622 30.1191C16.7995 30.7303 17.1171 31.2493 17.6343 31.7656C18.1515 32.2819 18.6693 32.5998 19.2808 32.8377C19.8724 33.0675 20.5474 33.2244 21.5369 33.2694C22.5284 33.3145 22.8448 33.3257 25.3689 33.3257C27.893 33.3257 28.2099 33.3152 29.2009 33.2694C30.1905 33.2244 30.8662 33.0675 31.457 32.8377C32.0681 32.5998 32.5862 32.2821 33.1035 31.7656C33.6208 31.2491 33.9376 30.7303 34.1756 30.1191C34.4053 29.5283 34.563 28.8525 34.6073 27.863C34.6524 26.8712 34.6628 26.5552 34.6628 24.031C34.6628 21.5069 34.6524 21.19 34.6073 20.199C34.5622 19.2095 34.4053 18.5334 34.1756 17.9429C33.9376 17.3318 33.62 16.8137 33.1035 16.2964C32.587 15.7791 32.0681 15.4616 31.4577 15.2243C30.8662 14.9946 30.1904 14.8369 29.2017 14.7926C28.2106 14.7476 27.8938 14.7363 25.3696 14.7363C22.8455 14.7363 22.5284 14.7468 21.5369 14.7926Z" fill="#0A0A0A"/>
</svg>
