<svg width="35" height="36" viewBox="0 0 35 36" fill="black" xmlns="http://www.w3.org/2000/svg">
    <path d="M33.012 10.4283L33.5234 9.86004V9.68956C34.0643 9.12005 34.3776 8.37202 34.4042 7.58704C34.4042 7.2745 34.4042 6.62102 34.4042 5.96753C34.4042 5.31404 34.4042 4.34802 34.4042 3.80818C34.5314 3.00475 34.3461 2.18309 33.8864 1.512C33.4267 0.840916 32.7274 0.371361 31.9323 0.199799C31.4529 0.0583344 30.9546 -0.00873947 30.4548 0.000915527C29.7315 0.00797272 29.0133 0.122887 28.3239 0.341862C27.2465 0.595684 26.2621 1.14698 25.4827 1.93296L17.5556 10.4283L16.9305 11.0249C16.4309 10.6882 15.8543 10.4829 15.2542 10.4283C14.4967 10.4262 13.7587 10.6683 13.1497 11.1187C12.5407 11.5691 12.093 12.2037 11.8731 12.9286H10.8218C9.39359 12.9069 7.97605 13.178 6.65665 13.7253C5.33725 14.2726 4.14399 15.0845 3.15048 16.1108C1.3293 17.9386 0.220917 20.3569 0.0251045 22.9298C-0.164658 25.9044 0.729458 28.8471 2.542 31.2133C4.35455 33.5795 6.96283 35.2091 9.88423 35.8006C10.6053 35.9374 11.338 36.004 12.072 35.9995C14.1943 36.0199 16.2769 35.4241 18.0672 34.2843C19.8576 33.1446 21.2788 31.5098 22.1584 29.5783C23.0066 27.6714 23.3019 25.5646 23.0108 23.498C23.5389 23.3224 24.0164 23.0213 24.4025 22.6204C24.7885 22.2195 25.0714 21.7309 25.227 21.1966C25.4543 20.5336 25.4543 19.8139 25.227 19.1509C25.8836 19.0239 26.4744 18.6694 26.8954 18.1497C27.3164 17.6299 27.5405 16.9784 27.5284 16.3097V16.1108C28.1996 16.0366 28.838 15.7813 29.3752 15.372C29.9297 14.9693 30.3898 14.4506 30.7235 13.852C31.0572 13.2533 31.2564 12.5892 31.3072 11.9057C31.8069 11.7345 32.256 11.4415 32.6142 11.0534L33.012 10.4283ZM31.7618 3.69453C31.7618 4.57532 31.6198 6.84831 31.5913 7.70069C31.6175 7.78392 31.6175 7.87317 31.5913 7.9564L30.5685 9.06449L30.3128 9.20655H28.7785C28.5796 9.20655 28.5228 9.20655 28.5228 9.46226C28.5228 9.71797 28.5228 10.4567 28.5228 10.9681C28.5794 11.335 28.5323 11.7103 28.3867 12.0518C28.241 12.3932 28.0028 12.6871 27.6988 12.9002C27.6269 13.0026 27.5339 13.0886 27.4261 13.1523C27.3183 13.2159 27.1982 13.2559 27.0738 13.2695H24.6019V16.3665H23.0676C22.852 16.3229 22.6298 16.3229 22.4141 16.3665C21.9595 16.537 21.6754 16.9916 21.306 17.3041L21.0219 17.5598L20.3968 18.0996L20.681 18.3554C21.164 18.81 21.647 19.2646 22.1016 19.7476C22.5562 20.2306 22.4141 20.6852 21.7606 20.8557L19.6865 21.3955C19.6115 21.3802 19.5342 21.3802 19.4592 21.3955C19.4429 21.5086 19.4429 21.6234 19.4592 21.7364C20.3124 23.8508 20.3124 26.2137 19.4592 28.3281C18.8212 29.7572 17.7855 30.9726 16.4756 31.829C15.1657 32.6855 13.637 33.1469 12.072 33.1582C11.5198 33.1532 10.9689 33.1057 10.4241 33.0162C8.1947 32.5564 6.20487 31.3106 4.8175 29.5059C3.43013 27.7013 2.73765 25.4581 2.86635 23.1855C3.00151 21.2698 3.81788 19.4657 5.16776 18.0996C5.90261 17.336 6.78564 16.7304 7.76276 16.32C8.73988 15.9096 9.7905 15.7031 10.8503 15.713C11.6149 15.7169 12.3769 15.8026 13.1232 15.9687L14.2597 16.2812C14.2597 16.2812 14.2597 16.0255 14.2597 15.9403C14.2597 15.3152 14.2597 14.6617 14.4586 14.0367C14.4586 13.9335 14.4793 13.8314 14.5196 13.7364C14.5599 13.6414 14.619 13.5555 14.6933 13.4839C14.7675 13.4123 14.8555 13.3564 14.9519 13.3196C15.0483 13.2827 15.1511 13.2657 15.2542 13.2695C15.3612 13.2717 15.4667 13.2955 15.5644 13.3394C15.662 13.3834 15.7498 13.4466 15.8224 13.5252L16.5327 14.1503L17.1294 14.6902L17.3851 14.3492L27.7272 4.0639C28.1371 3.64985 28.6455 3.34677 29.2047 3.18311C29.6677 3.05216 30.1445 2.97588 30.6253 2.95581H31.3356C31.7618 3.18311 31.7618 3.23993 31.7618 3.69453Z"/>
    <path d="M10.9351 22.3859C10.3732 22.3859 9.82385 22.5525 9.35661 22.8647C8.88937 23.1769 8.5252 23.6206 8.31015 24.1398C8.09511 24.659 8.03884 25.2303 8.14847 25.7814C8.2581 26.3326 8.5287 26.8388 8.92606 27.2362C9.32341 27.6335 9.82967 27.9041 10.3808 28.0138C10.932 28.1234 11.5032 28.0671 12.0224 27.8521C12.5416 27.637 12.9853 27.2729 13.2975 26.8056C13.6097 26.3384 13.7764 25.7891 13.7764 25.2271C13.7764 24.4736 13.477 23.7509 12.9442 23.218C12.4113 22.6852 11.6887 22.3859 10.9351 22.3859Z"/>
</svg>
