<svg width="20" height="21" viewBox="0 0 20 21" fill="black" xmlns="http://www.w3.org/2000/svg">
    <path clip-rule="evenodd" d="M20 10.7188C20 9.03627 18.8696 7.71875 17 7.71875H13.927L13.9548 7.64302C13.9826 7.56795 14.0607 7.36192 14.1367 7.16165L14.137 7.16088L14.137 7.16082L14.1371 7.16051C14.2044 6.98319 14.2699 6.81059 14.2971 6.73766C14.4872 6.22731 14.626 5.81611 14.7382 5.40888C14.9079 4.79338 15 4.23886 15 3.71875C15 2.24674 14.0919 1.33247 12.7483 0.941237C12.1423 0.764778 11.6148 0.718658 11 0.71875H10.5205L10.2203 1.09263C9.88112 1.51499 9.21499 2.27618 8.44701 3.15375L8.447 3.15376L8.44699 3.15377C7.03024 4.77269 5.2669 6.78766 4.57035 7.80215C4.38961 7.74847 4.19817 7.71964 4 7.71964H2C0.89543 7.71964 0 8.61508 0 9.71964V18.7196C0 19.8242 0.89543 20.7196 2 20.7196H4C4.68712 20.7196 5.29331 20.3731 5.65337 19.8453C5.95674 20.0415 6.29522 20.2053 6.66312 20.3369C7.50544 20.6383 8.34085 20.7308 9.0344 20.7182L16 20.7188C18.7551 20.7188 20 16.6623 20 10.7188ZM7.33688 18.4538C6.45197 18.1372 6 17.621 6 16.7188V9.71964V9.71875C6 9.47855 6.04443 9.26586 6.14171 9.03873C6.31645 8.63075 7.90193 6.82189 9.40467 5.10743L9.40481 5.10726C10.1803 4.22247 10.9338 3.36284 11.46 2.73388C11.7114 2.75274 11.9484 2.79138 12.1891 2.86149C12.7622 3.02835 13 3.26778 13 3.71875C13 4.03533 12.9359 4.42107 12.8101 4.87736C12.7161 5.21833 12.5944 5.57912 12.4229 6.03941C12.3986 6.10461 12.3381 6.26416 12.2737 6.43398L12.2733 6.43503L12.2731 6.43538L12.2729 6.43592C12.1943 6.64307 12.1101 6.865 12.079 6.9493C11.9489 7.30092 11.8633 7.55982 11.8047 7.79506C11.5555 8.7951 11.8055 9.71875 13 9.71875H17C17.6912 9.71875 18 10.0786 18 10.7188C18 15.5095 17.0151 18.7188 16 18.7188H9L8.96307 18.7194C8.52538 18.7272 7.91062 18.6591 7.33688 18.4538ZM2 18.7196V9.71964H4V18.7196H2Z"/>
</svg>
