<svg width="25" height="24" viewBox="0 0 25 24" fill="black" xmlns="http://www.w3.org/2000/svg">
    <path d="M0.196834 20.322C0.03966 20.7141 -0.0247738 21.1372 0.00854054 21.5582C0.0418549 21.9792 0.17202 22.3869 0.38892 22.7496C0.706402 23.1628 1.1203 23.4923 1.59458 23.7095C2.06887 23.9266 2.58915 24.0247 3.11014 23.9954H21.5184C22.0369 24.0158 22.5526 23.9102 23.021 23.6876C23.4895 23.465 23.8967 23.1321 24.2076 22.7177C24.4612 22.348 24.6226 21.9232 24.6783 21.4787C24.7339 21.0342 24.6824 20.5828 24.5278 20.1623C23.3413 17.0953 21.029 14.5941 18.0609 13.1668C18.876 12.2533 19.4572 11.1563 19.7546 9.96966C20.0521 8.78306 20.0569 7.54222 19.7687 6.35334C19.4806 5.16447 18.908 4.06296 18.1 3.14311C17.2919 2.22325 16.2726 1.51244 15.1291 1.07151C13.9856 0.630575 12.7521 0.472658 11.5341 0.611269C10.3161 0.749879 9.1499 1.18089 8.13531 1.86741C7.12072 2.55394 6.28796 3.47552 5.7083 4.5533C5.12864 5.63107 4.81936 6.83294 4.80691 8.05602C4.8177 9.94491 5.52414 11.7639 6.7918 13.1668C3.73451 14.5918 1.36446 17.1631 0.196834 20.322ZM10.4414 15.1792C10.7801 15.1062 11.0868 14.9276 11.317 14.6692C11.5472 14.4108 11.6891 14.086 11.722 13.7418C11.7541 13.3999 11.6749 13.0568 11.4961 12.7633C11.3173 12.4699 11.0485 12.2417 10.7296 12.1127C9.70956 11.7836 8.84567 11.0932 8.3011 10.1719C7.75653 9.2506 7.56899 8.16219 7.77392 7.11231C7.97885 6.06243 8.56206 5.12379 9.41335 4.47372C10.2647 3.82365 11.3251 3.50717 12.3943 3.58406C13.4111 3.58687 14.3953 3.94208 15.1786 4.58892C15.9619 5.23576 16.4957 6.13405 16.6885 7.13014C16.8814 8.12623 16.7214 9.15823 16.2359 10.0496C15.7504 10.941 14.9696 11.6364 14.0271 12.0169C13.7236 12.18 13.4797 12.4346 13.3301 12.7445C13.1806 13.0543 13.1332 13.4034 13.1947 13.7418C13.2368 14.0827 13.3818 14.4028 13.6105 14.6596C13.8393 14.9163 14.1409 15.0975 14.4753 15.1792C16.015 15.4741 17.4591 16.1407 18.6812 17.1206C19.9034 18.1006 20.8665 19.3642 21.4864 20.8011H3.59036C4.2107 19.3938 5.15399 18.1517 6.34408 17.1751C7.53418 16.1986 8.93773 15.5149 10.4414 15.1792Z"/>
</svg>
