<svg width="31" height="27" viewBox="0 0 31 27" fill="none" xmlns="http://www.w3.org/2000/svg">
    <path fill-rule="evenodd" clip-rule="evenodd" d="M2.54346 0L0.640616 1.75526L6.1124 6.80265C5.6038 7.19158 5.10046 7.60919 4.60265 8.05326C3.48692 9.04854 2.47754 10.1111 1.58897 11.1741C1.05278 11.8156 0.672094 12.3202 0.463662 12.6208L0 13.2895L0.463662 13.9582C0.672094 14.2589 1.05278 14.7635 1.58897 15.4049C2.47754 16.4679 3.48692 17.5305 4.60265 18.5258C7.87306 21.4431 11.3823 23.2188 15.0523 23.2188C17.3667 23.2188 19.6173 22.5125 21.7844 21.2591L27.5509 26.5784L29.4537 24.8231L2.54346 0ZM19.8186 19.4458L17.7827 17.5678C16.9817 18.0041 16.0476 18.2544 15.05 18.2544C12.0776 18.2544 9.66797 16.0316 9.66797 13.2897C9.66797 12.3695 9.93933 11.5079 10.4123 10.769L8.02569 8.56755C7.50534 8.95477 6.98746 9.37906 6.47335 9.83767C5.45856 10.7429 4.53359 11.7166 3.72004 12.6899C3.54434 12.9001 3.38197 13.1006 3.23353 13.2895C3.38197 13.4784 3.54434 13.6789 3.72004 13.8891C4.53359 14.8624 5.45856 15.8361 6.47335 16.7413C9.29011 19.254 12.2199 20.7364 15.0523 20.7364C16.6231 20.7364 18.2238 20.2805 19.8186 19.4458ZM12.4497 12.6484C12.3905 12.853 12.359 13.0679 12.359 13.2897C12.359 14.6606 13.5638 15.772 15.05 15.772C15.2904 15.772 15.5235 15.743 15.7453 15.6884L12.4497 12.6484ZM25.9485 18.1189L24.0456 16.3636C24.8989 15.5679 25.6832 14.7284 26.3847 13.8892C26.5604 13.679 26.7228 13.4785 26.8712 13.2896C26.7228 13.1007 26.5604 12.9002 26.3847 12.69C25.5711 11.7167 24.6462 10.743 23.6314 9.83776C20.8146 7.32507 17.8848 5.84267 15.0524 5.84267C14.3496 5.84267 13.6409 5.93392 12.9294 6.10953L10.8008 4.14606C12.19 3.63512 13.6087 3.36035 15.0524 3.36035C18.7224 3.36035 22.2316 5.13598 25.5021 8.05335C26.6178 9.04863 27.6272 10.1112 28.5158 11.1742C29.052 11.8157 29.4326 12.3203 29.6411 12.6209L30.1047 13.2896L29.6411 13.9583C29.4326 14.259 29.052 14.7636 28.5158 15.405C27.7472 16.3244 26.8884 17.2434 25.9485 18.1189Z" fill="black"/>
</svg>
