<svg width="19" height="19" viewBox="0 0 19 19" fill="none" xmlns="http://www.w3.org/2000/svg">
<path d="M6.19695 9.29469C6.19695 7.58365 7.58365 6.19621 9.29469 6.19621C11.0057 6.19621 12.3932 7.58365 12.3932 9.29469C12.3932 11.0057 11.0057 12.3932 9.29469 12.3932C7.58365 12.3932 6.19695 11.0057 6.19695 9.29469ZM4.52198 9.29469C4.52198 11.9307 6.65871 14.0674 9.29469 14.0674C11.9307 14.0674 14.0674 11.9307 14.0674 9.29469C14.0674 6.65871 11.9307 4.52198 9.29469 4.52198C6.65871 4.52198 4.52198 6.65871 4.52198 9.29469ZM13.141 4.33274C13.1409 4.55333 13.2062 4.769 13.3287 4.95247C13.4512 5.13594 13.6253 5.27897 13.8291 5.36347C14.0329 5.44797 14.2571 5.47015 14.4735 5.4272C14.6899 5.38425 14.8887 5.2781 15.0447 5.12218C15.2008 4.96625 15.3071 4.76756 15.3502 4.55122C15.3933 4.33488 15.3713 4.1106 15.287 3.90676C15.2026 3.70292 15.0597 3.52867 14.8764 3.40604C14.693 3.28341 14.4774 3.21791 14.2568 3.21782H14.2563C13.9606 3.21796 13.6771 3.33545 13.468 3.5445C13.2588 3.75354 13.1412 4.03704 13.141 4.33274ZM5.53963 16.8603C4.63344 16.8191 4.14089 16.6681 3.81357 16.5406C3.37962 16.3717 3.07 16.1705 2.74446 15.8454C2.41892 15.5203 2.21741 15.2109 2.04922 14.777C1.92162 14.4498 1.77067 13.9571 1.72948 13.0509C1.68442 12.0712 1.67542 11.7769 1.67542 9.29476C1.67542 6.81263 1.68516 6.51914 1.72948 5.53859C1.77075 4.6324 1.92281 4.14067 2.04922 3.81253C2.21816 3.37858 2.41937 3.06896 2.74446 2.74342C3.06955 2.41788 3.37888 2.21637 3.81357 2.04818C4.14075 1.92058 4.63344 1.76963 5.53963 1.72844C6.51937 1.68338 6.81367 1.67438 9.29469 1.67438C11.7757 1.67438 12.0703 1.68412 13.0509 1.72844C13.957 1.76971 14.4488 1.92177 14.7769 2.04818C15.2109 2.21637 15.5205 2.41833 15.846 2.74342C16.1716 3.06851 16.3723 3.37858 16.5413 3.81253C16.6689 4.1397 16.8198 4.6324 16.861 5.53859C16.9061 6.51914 16.9151 6.81263 16.9151 9.29476C16.9151 11.7769 16.9061 12.0704 16.861 13.0509C16.8197 13.9571 16.668 14.4497 16.5413 14.777C16.3723 15.2109 16.1711 15.5206 15.846 15.8454C15.5209 16.1702 15.2109 16.3717 14.7769 16.5406C14.4497 16.6682 13.957 16.8191 13.0509 16.8603C12.0711 16.9054 11.7768 16.9144 9.29469 16.9144C6.81256 16.9144 6.51907 16.9054 5.53963 16.8603ZM5.46267 0.0562886C4.4732 0.101349 3.79706 0.258244 3.20659 0.488008C2.59508 0.725283 2.0774 1.04361 1.56009 1.56009C1.04279 2.07658 0.725283 2.59508 0.488008 3.20659C0.258244 3.79744 0.101349 4.4732 0.0562886 5.46267C0.0104844 6.45371 0 6.77055 0 9.29469C0 11.8188 0.0104844 12.1357 0.0562886 13.1267C0.101349 14.1162 0.258244 14.7919 0.488008 15.3828C0.725283 15.9939 1.04286 16.513 1.56009 17.0293C2.07732 17.5455 2.59508 17.8634 3.20659 18.1014C3.79818 18.3311 4.4732 18.488 5.46267 18.5331C6.45423 18.5781 6.77055 18.5894 9.29469 18.5894C11.8188 18.5894 12.1357 18.5789 13.1267 18.5331C14.1162 18.488 14.7919 18.3311 15.3828 18.1014C15.9939 17.8634 16.512 17.5458 17.0293 17.0293C17.5466 16.5128 17.8634 15.9939 18.1014 15.3828C18.3311 14.7919 18.4888 14.1162 18.5331 13.1267C18.5781 12.1349 18.5886 11.8188 18.5886 9.29469C18.5886 6.77055 18.5781 6.45371 18.5331 5.46267C18.488 4.47312 18.3311 3.79707 18.1014 3.20659C17.8634 2.59545 17.5458 2.0774 17.0293 1.56009C16.5128 1.04279 15.9939 0.725283 15.3835 0.488008C14.7919 0.258244 14.1162 0.100606 13.1274 0.0562886C12.1364 0.011228 11.8196 0 9.29543 0C6.77129 0 6.45423 0.0104844 5.46267 0.0562886Z" fill="#171719"/>
</svg>
