<svg width="494" height="110" viewBox="0 0 494 110" fill="none" xmlns="http://www.w3.org/2000/svg">
<path d="M6.65043 18.3032C2.9775 21.9761 2.9775 27.9311 6.65042 31.604L18.2887 43.2423C21.9616 46.9152 27.9166 46.9152 31.5895 43.2423L43.2277 31.604C46.9007 27.9311 46.9007 21.9761 43.2277 18.3032L31.5895 6.66496C27.9166 2.99203 21.9616 2.99203 18.2887 6.66495L6.65043 18.3032Z" fill="#EE1C29"/>
<path d="M35.2442 45.7207C31.5712 49.3936 31.5712 55.3486 35.2442 59.0215L46.8824 70.6598C50.5553 74.3327 56.5103 74.3327 60.1833 70.6598L99.2545 31.5885C102.927 27.9156 102.927 21.9606 99.2545 18.2877L87.6163 6.64945C83.9433 2.97652 77.9883 2.97652 74.3154 6.64945L35.2442 45.7207Z" fill="#EE1C29"/>
<path d="M64.8506 73.33C61.1777 77.003 61.1777 82.958 64.8506 86.6309L76.4889 98.2691C80.1618 101.942 86.1168 101.942 89.7897 98.2691L156.294 31.7649C159.967 28.092 159.967 22.137 156.294 18.4641L144.656 6.82583C140.983 3.15291 135.028 3.1529 131.355 6.82583L64.8506 73.33Z" fill="#EE1C29"/>
<path d="M203.88 3.4341H226.069V10.3202H211.531V18.8459H225.522V25.4041H211.531V41.6904H203.88V3.4341Z" fill="#171719"/>
<path d="M233.234 3.4341H246.132C249.156 3.4341 251.725 3.9624 253.838 5.019C255.987 6.03917 257.627 7.46012 258.756 9.28184C259.886 11.1036 260.451 13.235 260.451 15.6761C260.451 18.3723 259.758 20.7041 258.374 22.6715C256.989 24.6026 254.985 26.0053 252.362 26.8797L262.746 41.6904H253.401L244.492 27.8088H241.104V41.6904H233.234V3.4341ZM245.64 10.2109H241.104V21.5785H245.64C247.68 21.5785 249.302 21.0866 250.504 20.1029C251.706 19.0827 252.307 17.68 252.307 15.8947C252.307 14.073 251.706 12.6703 250.504 11.6865C249.302 10.7028 247.68 10.2109 245.64 10.2109Z" fill="#171719"/>
<path d="M267.125 3.4341H291.499V10.1016H274.776V18.1354H290.406V24.639H274.776V35.0229H291.499V41.6904H267.125V3.4341Z" fill="#171719"/>
<path d="M299.2 3.4341H323.575V10.1016H306.852V18.1354H322.482V24.639H306.852V35.0229H323.575V41.6904H299.2V3.4341Z" fill="#171719"/>
<path d="M332.567 3.4341H335.573V29.3391C335.573 32.3996 336.375 34.8407 337.978 36.6624C339.581 38.4841 341.858 39.395 344.809 39.395C347.76 39.395 350.038 38.4841 351.641 36.6624C353.244 34.8407 354.045 32.3996 354.045 29.3391V3.4341H357.051V29.3391C357.051 31.8531 356.559 34.0938 355.576 36.0612C354.628 37.9923 353.244 39.5043 351.422 40.5973C349.6 41.6904 347.396 42.2369 344.809 42.2369C342.259 42.2369 340.055 41.6904 338.196 40.5973C336.375 39.5043 334.972 37.9923 333.988 36.0612C333.041 34.0938 332.567 31.8531 332.567 29.3391V3.4341Z" fill="#171719"/>
<path d="M393.932 3.4341H396.938V43.166L367.863 9.77371V41.6904H364.857V1.9585L393.932 35.4601V3.4341Z" fill="#171719"/>
<path d="M406.003 3.4341H409.009V41.6904H406.003V3.4341Z" fill="#171719"/>
<path d="M415.882 22.5622C415.882 19.7568 416.355 17.1699 417.303 14.8017C418.25 12.397 419.58 10.3202 421.292 8.57137C423.005 6.78608 425.009 5.40156 427.304 4.41783C429.636 3.4341 432.168 2.94223 434.901 2.94223C437.633 2.94223 440.147 3.4341 442.443 4.41783C444.774 5.40156 446.796 6.78608 448.509 8.57137C450.221 10.3202 451.551 12.397 452.498 14.8017C453.446 17.1699 453.919 19.7568 453.919 22.5622C453.919 25.3677 453.446 27.9728 452.498 30.3775C451.551 32.7457 450.221 34.8225 448.509 36.6078C446.796 38.3566 444.774 39.7229 442.443 40.7066C440.147 41.6904 437.633 42.1823 434.901 42.1823C432.168 42.1823 429.636 41.6904 427.304 40.7066C425.009 39.7229 423.005 38.3566 421.292 36.6078C419.58 34.8225 418.25 32.7457 417.303 30.3775C416.355 27.9728 415.882 25.3677 415.882 22.5622ZM419.052 22.5622C419.052 25.732 419.726 28.5739 421.074 31.0879C422.458 33.6019 424.335 35.5876 426.703 37.045C429.107 38.4659 431.84 39.1764 434.901 39.1764C437.961 39.1764 440.675 38.4659 443.044 37.045C445.448 35.5876 447.325 33.6019 448.673 31.0879C450.021 28.5739 450.695 25.732 450.695 22.5622C450.695 19.356 450.021 16.5141 448.673 14.0366C447.325 11.5226 445.448 9.5551 443.044 8.13416C440.675 6.67677 437.961 5.94808 434.901 5.94808C431.84 5.94808 429.107 6.67677 426.703 8.13416C424.335 9.5551 422.458 11.5226 421.074 14.0366C419.726 16.5141 419.052 19.356 419.052 22.5622Z" fill="#171719"/>
<path d="M489.946 3.4341H492.952V43.166L463.877 9.77371V41.6904H460.871V1.9585L489.946 35.4601V3.4341Z" fill="#171719"/>
<path d="M202.809 78.6508C202.809 74.4319 203.54 70.5375 205 66.9677C206.46 63.3438 208.516 60.2337 211.166 57.6375C213.871 54.9871 217.008 52.9318 220.578 51.4714C224.147 50.011 228.042 49.2808 232.261 49.2808C236.48 49.2808 240.374 50.011 243.944 51.4714C247.568 52.9318 250.705 54.9871 253.355 57.6375C256.06 60.2337 258.142 63.3438 259.602 66.9677C261.063 70.5375 261.793 74.4319 261.793 78.6508C261.793 82.8697 261.063 86.7911 259.602 90.415C258.142 93.9849 256.087 97.122 253.436 99.8264C250.786 102.477 247.649 104.559 244.025 106.074C240.455 107.534 236.534 108.264 232.261 108.264C227.988 108.264 224.066 107.534 220.496 106.074C216.927 104.559 213.816 102.477 211.166 99.8264C208.516 97.122 206.46 93.9849 205 90.415C203.54 86.7911 202.809 82.8697 202.809 78.6508ZM212.951 78.6508C212.951 82.5452 213.762 86.0339 215.385 89.1169C217.062 92.1459 219.361 94.5258 222.281 96.2566C225.202 97.9874 228.529 98.8528 232.261 98.8528C236.047 98.8528 239.373 97.9874 242.24 96.2566C245.161 94.5258 247.432 92.1459 249.055 89.1169C250.732 86.0339 251.57 82.5452 251.57 78.6508C251.57 74.7564 250.759 71.2948 249.136 68.2658C247.514 65.1828 245.242 62.7759 242.321 61.045C239.454 59.3142 236.101 58.4488 232.261 58.4488C228.529 58.4488 225.202 59.3142 222.281 61.045C219.361 62.7759 217.062 65.1828 215.385 68.2658C213.762 71.2948 212.951 74.7564 212.951 78.6508Z" fill="#171719"/>
<path d="M312.562 50.2544H321.974V109.887L280.515 68.9149V107.047H271.104V47.4147L312.562 88.3867V50.2544Z" fill="#171719"/>
<path d="M333.441 50.2544H343.014V98.4472H365.569V107.047H333.441V50.2544Z" fill="#171719"/>
<path d="M374.755 50.2544H384.41V107.047H374.755V50.2544Z" fill="#171719"/>
<path d="M437.43 50.2544H446.842V109.887L405.383 68.9149V107.047H395.972V47.4147L437.43 88.3867V50.2544Z" fill="#171719"/>
<path d="M459.436 50.2544H493.998V58.6922H468.847V72.4847H492.376V80.7603H468.847V98.6094H493.998V107.047H459.436V50.2544Z" fill="#171719"/>
</svg>
