<svg width="439" height="98" viewBox="0 0 439 98" fill="none" xmlns="http://www.w3.org/2000/svg">
    <path d="M5.90183 16.2432C2.64234 19.5027 2.64234 24.7874 5.90182 28.0468L16.23 38.375C19.4895 41.6345 24.7742 41.6345 28.0337 38.375L38.3618 28.0468C41.6213 24.7874 41.6213 19.5027 38.3619 16.2432L28.0337 5.91501C24.7742 2.65552 19.4895 2.65552 16.23 5.91501L5.90183 16.2432Z" fill="#EE1C29"/>
    <path d="M31.2768 40.5752C28.0173 43.8347 28.0173 49.1194 31.2768 52.3789L41.605 62.7071C44.8645 65.9666 50.1492 65.9666 53.4087 62.7071L88.0819 28.0339C91.3414 24.7744 91.3414 19.4897 88.0819 16.2302L77.7537 5.90202C74.4942 2.64254 69.2095 2.64253 65.95 5.90202L31.2768 40.5752Z" fill="#EE1C29"/>
    <path d="M56.6635 65.9639C53.4041 69.2234 53.4041 74.5081 56.6635 77.7675L66.9917 88.0957C70.2512 91.3552 75.5359 91.3552 78.7954 88.0957L137.814 29.0775C141.073 25.818 141.073 20.5334 137.814 17.2739L127.485 6.94568C124.226 3.68619 118.941 3.68618 115.682 6.94567L56.6635 65.9639Z" fill="#EE1C29"/>
    <path d="M180.93 3.04778H200.621V9.15878H187.72V16.7248H200.136V22.5448H187.72V36.9978H180.93V3.04778Z" fill="#171719"/>
    <path d="M206.98 3.04778H218.426C221.11 3.04778 223.389 3.51662 225.265 4.45428C227.172 5.35962 228.627 6.62062 229.63 8.23728C230.632 9.85395 231.133 11.7454 231.133 13.9118C231.133 16.3045 230.519 18.3738 229.29 20.1198C228.062 21.8335 226.283 23.0783 223.955 23.8543L233.17 36.9978H224.877L216.971 24.6788H213.964V36.9978H206.98V3.04778ZM217.99 9.06178H213.964V19.1498H217.99C219.8 19.1498 221.239 18.7133 222.306 17.8403C223.373 16.9349 223.907 15.6901 223.907 14.1058C223.907 12.4891 223.373 11.2443 222.306 10.3713C221.239 9.49828 219.8 9.06178 217.99 9.06178Z" fill="#171719"/>
    <path d="M237.056 3.04778H258.687V8.96478H243.846V16.0943H257.717V21.8658H243.846V31.0808H258.687V36.9978H237.056V3.04778Z" fill="#171719"/>
    <path d="M265.521 3.04778H287.152V8.96478H272.311V16.0943H286.182V21.8658H272.311V31.0808H287.152V36.9978H265.521V3.04778Z" fill="#171719"/>
    <path d="M295.132 3.04778H297.8V26.0368C297.8 28.7528 298.511 30.9191 299.934 32.5358C301.356 34.1525 303.377 34.9608 305.996 34.9608C308.615 34.9608 310.636 34.1525 312.059 32.5358C313.481 30.9191 314.193 28.7528 314.193 26.0368V3.04778H316.86V26.0368C316.86 28.2678 316.424 30.2563 315.551 32.0023C314.71 33.716 313.481 35.0578 311.865 36.0278C310.248 36.9978 308.292 37.4828 305.996 37.4828C303.733 37.4828 301.777 36.9978 300.128 36.0278C298.511 35.0578 297.266 33.716 296.393 32.0023C295.552 30.2563 295.132 28.2678 295.132 26.0368V3.04778Z" fill="#171719"/>
    <path d="M349.589 3.04778H352.257V38.3073L326.455 8.67378V36.9978H323.787V1.73828L349.589 31.4688V3.04778Z" fill="#171719"/>
    <path d="M360.302 3.04778H362.97V36.9978H360.302V3.04778Z" fill="#171719"/>
    <path d="M369.068 20.0228C369.068 17.5331 369.489 15.2374 370.329 13.1358C371.17 11.0018 372.35 9.15878 373.87 7.60678C375.39 6.02245 377.168 4.79378 379.205 3.92078C381.274 3.04778 383.521 2.61128 385.946 2.61128C388.371 2.61128 390.602 3.04778 392.639 3.92078C394.709 4.79378 396.503 6.02245 398.023 7.60678C399.543 9.15878 400.723 11.0018 401.563 13.1358C402.404 15.2374 402.824 17.5331 402.824 20.0228C402.824 22.5125 402.404 24.8243 401.563 26.9583C400.723 29.0599 399.543 30.9029 398.023 32.4873C396.503 34.0393 394.709 35.2518 392.639 36.1248C390.602 36.9978 388.371 37.4343 385.946 37.4343C383.521 37.4343 381.274 36.9978 379.205 36.1248C377.168 35.2518 375.39 34.0393 373.87 32.4873C372.35 30.9029 371.17 29.0599 370.329 26.9583C369.489 24.8243 369.068 22.5125 369.068 20.0228ZM371.881 20.0228C371.881 22.8358 372.48 25.3578 373.676 27.5888C374.905 29.8198 376.57 31.5819 378.671 32.8753C380.805 34.1363 383.23 34.7668 385.946 34.7668C388.662 34.7668 391.071 34.1363 393.173 32.8753C395.307 31.5819 396.972 29.8198 398.168 27.5888C399.365 25.3578 399.963 22.8358 399.963 20.0228C399.963 17.1775 399.365 14.6554 398.168 12.4568C396.972 10.2258 395.307 8.47978 393.173 7.21878C391.071 5.92545 388.662 5.27878 385.946 5.27878C383.23 5.27878 380.805 5.92545 378.671 7.21878C376.57 8.47978 374.905 10.2258 373.676 12.4568C372.48 14.6554 371.881 17.1775 371.881 20.0228Z" fill="#171719"/>
    <path d="M434.796 3.04778H437.463V38.3073L411.661 8.67378V36.9978H408.994V1.73828L434.796 31.4688V3.04778Z" fill="#171719"/>
    <path d="M179.98 69.7978C179.98 66.0538 180.628 62.5978 181.924 59.4298C183.22 56.2138 185.044 53.4538 187.396 51.1498C189.796 48.7978 192.58 46.9738 195.748 45.6778C198.916 44.3818 202.372 43.7338 206.116 43.7338C209.86 43.7338 213.316 44.3818 216.484 45.6778C219.7 46.9738 222.484 48.7978 224.836 51.1498C227.236 53.4538 229.084 56.2138 230.38 59.4298C231.676 62.5978 232.324 66.0538 232.324 69.7978C232.324 73.5418 231.676 77.0218 230.38 80.2378C229.084 83.4058 227.26 86.1898 224.908 88.5898C222.556 90.9418 219.772 92.7898 216.556 94.1338C213.388 95.4298 209.908 96.0778 206.116 96.0778C202.324 96.0778 198.844 95.4298 195.676 94.1338C192.508 92.7898 189.748 90.9418 187.396 88.5898C185.044 86.1898 183.22 83.4058 181.924 80.2378C180.628 77.0218 179.98 73.5418 179.98 69.7978ZM188.98 69.7978C188.98 73.2538 189.7 76.3498 191.14 79.0858C192.628 81.7738 194.668 83.8858 197.26 85.4218C199.852 86.9578 202.804 87.7258 206.116 87.7258C209.476 87.7258 212.428 86.9578 214.972 85.4218C217.564 83.8858 219.58 81.7738 221.02 79.0858C222.508 76.3498 223.252 73.2538 223.252 69.7978C223.252 66.3418 222.532 63.2698 221.092 60.5818C219.652 57.8458 217.636 55.7098 215.044 54.1738C212.5 52.6378 209.524 51.8698 206.116 51.8698C202.804 51.8698 199.852 52.6378 197.26 54.1738C194.668 55.7098 192.628 57.8458 191.14 60.5818C189.7 63.2698 188.98 66.3418 188.98 69.7978Z" fill="#171719"/>
    <path d="M277.379 44.5978H285.731V97.5178L248.939 61.1578V94.9978H240.587V42.0778L277.379 78.4378V44.5978Z" fill="#171719"/>
    <path d="M295.907 44.5978H304.403V87.3658H324.419V94.9978H295.907V44.5978Z" fill="#171719"/>
    <path d="M332.571 44.5978H341.139V94.9978H332.571V44.5978Z" fill="#171719"/>
    <path d="M388.192 44.5978H396.544V97.5178L359.752 61.1578V94.9978H351.4V42.0778L388.192 78.4378V44.5978Z" fill="#171719"/>
    <path d="M407.72 44.5978H438.392V52.0858H416.072V64.3258H436.952V71.6698H416.072V87.5098H438.392V94.9978H407.72V44.5978Z" fill="#171719"/>
</svg>
