<svg width="260" height="97" viewBox="0 0 260 97" fill="none" xmlns="http://www.w3.org/2000/svg">
    <path d="M1.93047 2.04778H21.6215V8.15878H8.72047V15.7248H21.1365V21.5448H8.72047V35.9978H1.93047V2.04778Z" fill="#171719"/>
    <path d="M27.9803 2.04778H39.4263C42.1099 2.04778 44.3894 2.51662 46.2648 3.45428C48.1724 4.35962 49.6274 5.62062 50.6298 7.23728C51.6321 8.85395 52.1333 10.7454 52.1333 12.9118C52.1333 15.3045 51.5189 17.3738 50.2903 19.1198C49.0616 20.8335 47.2833 22.0783 44.9553 22.8543L54.1703 35.9978H45.8768L37.9713 23.6788H34.9643V35.9978H27.9803V2.04778ZM38.9898 8.06178H34.9643V18.1498H38.9898C40.8004 18.1498 42.2393 17.7133 43.3063 16.8403C44.3733 15.9349 44.9068 14.6901 44.9068 13.1058C44.9068 11.4891 44.3733 10.2443 43.3063 9.37128C42.2393 8.49828 40.8004 8.06178 38.9898 8.06178Z" fill="#171719"/>
    <path d="M58.056 2.04778H79.687V7.96478H64.846V15.0943H78.717V20.8658H64.846V30.0808H79.687V35.9978H58.056V2.04778Z" fill="#171719"/>
    <path d="M86.5213 2.04778H108.152V7.96478H93.3113V15.0943H107.182V20.8658H93.3113V30.0808H108.152V35.9978H86.5213V2.04778Z" fill="#171719"/>
    <path d="M116.132 2.04778H118.8V25.0368C118.8 27.7528 119.511 29.9191 120.934 31.5358C122.356 33.1525 124.377 33.9608 126.996 33.9608C129.615 33.9608 131.636 33.1525 133.059 31.5358C134.481 29.9191 135.193 27.7528 135.193 25.0368V2.04778H137.86V25.0368C137.86 27.2678 137.424 29.2563 136.551 31.0023C135.71 32.716 134.481 34.0578 132.865 35.0278C131.248 35.9978 129.292 36.4828 126.996 36.4828C124.733 36.4828 122.777 35.9978 121.128 35.0278C119.511 34.0578 118.266 32.716 117.393 31.0023C116.552 29.2563 116.132 27.2678 116.132 25.0368V2.04778Z" fill="#171719"/>
    <path d="M170.589 2.04778H173.257V37.3073L147.455 7.67378V35.9978H144.787V0.738281L170.589 30.4688V2.04778Z" fill="#171719"/>
    <path d="M181.302 2.04778H183.97V35.9978H181.302V2.04778Z" fill="#171719"/>
    <path d="M190.068 19.0228C190.068 16.5331 190.489 14.2374 191.329 12.1358C192.17 10.0018 193.35 8.15878 194.87 6.60678C196.39 5.02245 198.168 3.79378 200.205 2.92078C202.274 2.04778 204.521 1.61128 206.946 1.61128C209.371 1.61128 211.602 2.04778 213.639 2.92078C215.709 3.79378 217.503 5.02245 219.023 6.60678C220.543 8.15878 221.723 10.0018 222.563 12.1358C223.404 14.2374 223.824 16.5331 223.824 19.0228C223.824 21.5125 223.404 23.8243 222.563 25.9583C221.723 28.0599 220.543 29.9029 219.023 31.4873C217.503 33.0393 215.709 34.2518 213.639 35.1248C211.602 35.9978 209.371 36.4343 206.946 36.4343C204.521 36.4343 202.274 35.9978 200.205 35.1248C198.168 34.2518 196.39 33.0393 194.87 31.4873C193.35 29.9029 192.17 28.0599 191.329 25.9583C190.489 23.8243 190.068 21.5125 190.068 19.0228ZM192.881 19.0228C192.881 21.8358 193.48 24.3578 194.676 26.5888C195.905 28.8198 197.57 30.5819 199.671 31.8753C201.805 33.1363 204.23 33.7668 206.946 33.7668C209.662 33.7668 212.071 33.1363 214.173 31.8753C216.307 30.5819 217.972 28.8198 219.168 26.5888C220.365 24.3578 220.963 21.8358 220.963 19.0228C220.963 16.1775 220.365 13.6554 219.168 11.4568C217.972 9.22578 216.307 7.47978 214.173 6.21878C212.071 4.92545 209.662 4.27878 206.946 4.27878C204.23 4.27878 201.805 4.92545 199.671 6.21878C197.57 7.47978 195.905 9.22578 194.676 11.4568C193.48 13.6554 192.881 16.1775 192.881 19.0228Z" fill="#171719"/>
    <path d="M255.796 2.04778H258.463V37.3073L232.661 7.67378V35.9978H229.994V0.738281L255.796 30.4688V2.04778Z" fill="#171719"/>
    <path d="M0.980469 68.7978C0.980469 65.0538 1.62847 61.5978 2.92447 58.4298C4.22047 55.2138 6.04447 52.4538 8.39647 50.1498C10.7965 47.7978 13.5805 45.9738 16.7485 44.6778C19.9165 43.3818 23.3725 42.7338 27.1165 42.7338C30.8605 42.7338 34.3165 43.3818 37.4845 44.6778C40.7005 45.9738 43.4845 47.7978 45.8365 50.1498C48.2365 52.4538 50.0845 55.2138 51.3805 58.4298C52.6765 61.5978 53.3245 65.0538 53.3245 68.7978C53.3245 72.5418 52.6765 76.0218 51.3805 79.2378C50.0845 82.4058 48.2605 85.1898 45.9085 87.5898C43.5565 89.9418 40.7725 91.7898 37.5565 93.1338C34.3885 94.4298 30.9085 95.0778 27.1165 95.0778C23.3245 95.0778 19.8445 94.4298 16.6765 93.1338C13.5085 91.7898 10.7485 89.9418 8.39647 87.5898C6.04447 85.1898 4.22047 82.4058 2.92447 79.2378C1.62847 76.0218 0.980469 72.5418 0.980469 68.7978ZM9.98047 68.7978C9.98047 72.2538 10.7005 75.3498 12.1405 78.0858C13.6285 80.7738 15.6685 82.8858 18.2605 84.4218C20.8525 85.9578 23.8045 86.7258 27.1165 86.7258C30.4765 86.7258 33.4285 85.9578 35.9725 84.4218C38.5645 82.8858 40.5805 80.7738 42.0205 78.0858C43.5085 75.3498 44.2525 72.2538 44.2525 68.7978C44.2525 65.3418 43.5325 62.2698 42.0925 59.5818C40.6525 56.8458 38.6365 54.7098 36.0445 53.1738C33.5005 51.6378 30.5245 50.8698 27.1165 50.8698C23.8045 50.8698 20.8525 51.6378 18.2605 53.1738C15.6685 54.7098 13.6285 56.8458 12.1405 59.5818C10.7005 62.2698 9.98047 65.3418 9.98047 68.7978Z" fill="#171719"/>
    <path d="M98.379 43.5978H106.731V96.5178L69.939 60.1578V93.9978H61.587V41.0778L98.379 77.4378V43.5978Z" fill="#171719"/>
    <path d="M116.907 43.5978H125.403V86.3658H145.419V93.9978H116.907V43.5978Z" fill="#171719"/>
    <path d="M153.571 43.5978H162.139V93.9978H153.571V43.5978Z" fill="#171719"/>
    <path d="M209.192 43.5978H217.544V96.5178L180.752 60.1578V93.9978H172.4V41.0778L209.192 77.4378V43.5978Z" fill="#171719"/>
    <path d="M228.72 43.5978H259.392V51.0858H237.072V63.3258H257.952V70.6698H237.072V86.5098H259.392V93.9978H228.72V43.5978Z" fill="#171719"/>
</svg>
