<svg width="31" height="38" viewBox="0 0 31 38" fill="none" xmlns="http://www.w3.org/2000/svg">
<path fill-rule="evenodd" clip-rule="evenodd" d="M31 31.1168C30.3716 30.3715 29.5968 29.7499 28.7071 29.3061L22.1378 26.0311C21.1313 25.5293 20.4473 24.5444 20.3268 23.4228L20.2323 22.5352C20.1489 21.7432 20.3157 20.9305 20.7828 20.2883C21.4205 19.4119 21.8487 18.3708 21.9821 17.2249L22.1045 16.1501C23.0517 16.1501 23.8635 15.476 24.0433 14.5435L24.39 12.7384C24.5698 11.791 24.0452 10.851 23.1462 10.5121L22.7681 10.3679L23.1184 7.29142C23.5633 3.4079 20.5344 0 16.6381 0H14.3637C10.4656 0 7.43859 3.4079 7.88161 7.29142L8.23565 10.3679L7.85566 10.5121C6.95479 10.851 6.43022 11.791 6.61373 12.7384L6.9585 14.5435C7.1383 15.476 7.95019 16.1501 8.89739 16.1501L9.02159 17.2249C9.15134 18.3708 9.58138 19.4119 10.219 20.2883C10.6843 20.9305 10.853 21.7432 10.7696 22.5334L10.6732 23.4228C10.5545 24.5444 9.8724 25.5293 8.86403 26.0311L2.29479 29.3061C1.40505 29.7499 0.630232 30.3715 0 31.1168C0 31.1168 4.09836 38 15.5019 38C26.9035 38 31 31.1168 31 31.1168Z" fill="url(#paint0_linear)"/>
<defs>
<linearGradient id="paint0_linear" x1="0.259436" y1="18.9999" x2="26.2745" y2="43.1008" gradientUnits="userSpaceOnUse">
<stop stop-color="#828ECC"/>
<stop offset="1" stop-color="#D2D1E8" stop-opacity="0.85"/>
</linearGradient>
</defs>
</svg>
