<svg width="12" height="19" viewBox="0 0 12 19" fill="none" xmlns="http://www.w3.org/2000/svg">
<path fill-rule="evenodd" clip-rule="evenodd" d="M5.69658 1.87946e-05C8.34288 0.00709887 10.4669 2.17165 10.4533 4.84719C10.4399 7.46096 8.28118 9.57936 5.63933 9.57058C3.02443 9.56179 0.879869 7.39382 0.895433 4.77468C0.910143 2.12697 3.05583 -0.00730542 5.69658 1.87946e-05ZM5.69536 7.1902C6.95018 7.18581 7.94957 6.178 7.94499 4.92092C7.94042 3.66335 6.93889 2.66262 5.68355 2.66164C4.41771 2.66042 3.40676 3.67946 3.41643 4.9485C3.42586 6.20095 4.43654 7.19484 5.69536 7.1902Z" fill="#171719"/>
<path d="M11.0565 11.4507C10.4713 12.0515 9.76695 12.4863 8.98473 12.7896C8.24532 13.0762 7.43501 13.2205 6.6328 13.3164L6.71767 13.409C6.78594 13.4837 6.83138 13.5332 6.88686 13.5886L8.13698 14.8423C8.81053 15.5169 9.48406 16.1914 10.1542 16.8694C10.5239 17.2434 10.6009 17.7071 10.3974 18.1416C10.1753 18.617 9.6769 18.9295 9.18791 18.8958C8.87825 18.8743 8.63671 18.7207 8.42238 18.5047C8.15581 18.2363 7.88762 17.9697 7.6194 17.7031L7.15154 17.2376C6.74996 16.8367 6.3506 16.4339 5.959 16.0237C5.72411 15.7786 5.6118 15.8252 5.40471 16.0381C4.57829 16.8894 3.73827 17.7268 2.89351 18.5598C2.51406 18.9341 2.06264 19.002 1.62233 18.7879C1.1545 18.5615 0.857073 18.0838 0.879869 17.6033C0.895983 17.2791 1.05553 17.0305 1.27846 16.8086C2.20244 15.8867 3.12395 14.9622 4.04531 14.0379L4.50517 13.5764C4.52809 13.5535 4.55043 13.53 4.57366 13.5051L4.74648 13.3179C3.28072 13.1648 1.95894 12.804 0.827318 11.9192L0.746874 11.8567C0.63225 11.7681 0.517565 11.6795 0.413988 11.5794C-0.0816479 11.1038 -0.131422 10.5589 0.26024 9.99782C0.595781 9.5176 1.15837 9.38894 1.74352 9.66506C1.85692 9.71828 1.9648 9.78542 2.06819 9.85671C4.1769 11.3057 7.07393 11.3455 9.191 9.92141C9.40059 9.76125 9.6249 9.62941 9.88481 9.56301C10.3896 9.43288 10.861 9.61892 11.1318 10.0608C11.4417 10.5659 11.4381 11.0586 11.0565 11.4507Z" fill="#171719"/>
</svg>
