<svg width="27" height="37" viewBox="0 0 27 37" fill="none" xmlns="http://www.w3.org/2000/svg">
<path d="M22.6626 10.4436V13.4874C22.6626 15.3023 22.9884 17.0881 23.6092 18.7429C24.2354 20.414 23.4053 22.2635 21.7051 22.8024C20.2813 23.2538 18.8355 23.588 17.3791 23.805L17.4595 24.5445C17.5614 25.502 18.1494 26.3376 19.0141 26.7654L24.6573 29.5488C25.4219 29.9256 26.0863 30.4535 26.627 31.0888C26.627 31.0888 23.1063 36.9414 13.3144 36.9414C3.51883 36.9414 0 31.0888 0 31.0888C0.538839 30.4535 1.20511 29.9256 1.96967 29.5488L7.61292 26.7654C8.47761 26.3376 9.06559 25.502 9.16754 24.5445L9.24626 23.8038C7.79252 23.5867 6.34938 23.2529 4.92825 22.8024C3.228 22.2635 2.3979 20.414 3.02411 18.7429C3.64669 17.0881 3.97072 15.3023 3.97072 13.4874V10.4436C3.97072 4.67479 8.15582 0 13.3167 0C18.4775 0 22.6626 4.67479 22.6626 10.4436Z" fill="url(#paint0_linear)"/>
<defs>
<linearGradient id="paint0_linear" x1="0.222839" y1="18.4706" x2="25.087" y2="38.8228" gradientUnits="userSpaceOnUse">
<stop stop-color="#828ECC"/>
<stop offset="1" stop-color="#D2D1E8" stop-opacity="0.85"/>
</linearGradient>
</defs>
</svg>
